<svg width="366" height="70" viewBox="0 0 366 70" fill="none" xmlns="http://www.w3.org/2000/svg">
<path d="M23.625 36.75H28.875V23.625H23.625V36.75ZM13.125 32.8125C11.1125 31.8062 9.51562 30.3516 8.33437 28.4484C7.15312 26.5453 6.5625 24.4781 6.5625 22.2469C6.5625 18.9656 7.68906 16.1875 9.94219 13.9125C12.1953 11.6375 14.9625 10.5 18.2437 10.5C18.7687 10.5 19.3047 10.5437 19.8516 10.6312C20.3984 10.7187 20.9344 10.8281 21.4594 10.9594C22.5531 9.16562 23.975 7.76562 25.725 6.75937C27.475 5.75312 29.4 5.25 31.5 5.25C33.6 5.25 35.525 5.75312 37.275 6.75937C39.025 7.76562 40.4469 9.16562 41.5406 10.9594C42.0656 10.8281 42.5906 10.7187 43.1156 10.6312C43.6406 10.5437 44.1875 10.5 44.7562 10.5C48.0375 10.5 50.8047 11.6375 53.0578 13.9125C55.3109 16.1875 56.4375 18.9656 56.4375 22.2469C56.4375 24.4781 55.8469 26.5453 54.6656 28.4484C53.4844 30.3516 51.8875 31.8062 49.875 32.8125V47.25H13.125V32.8125ZM34.125 36.75H39.375V23.625H34.125V36.75ZM18.375 42H44.625V29.5969L47.5125 28.1531C48.65 27.5844 49.5469 26.7859 50.2031 25.7578C50.8594 24.7297 51.1875 23.5812 51.1875 22.3125C51.1875 20.475 50.5641 18.9219 49.3172 17.6531C48.0703 16.3844 46.55 15.75 44.7562 15.75C44.275 15.75 43.8375 15.7937 43.4437 15.8812C43.05 15.9687 42.6344 16.0781 42.1969 16.2094L39.1125 17.0625L37.0781 13.65C36.4656 12.6437 35.6672 11.8672 34.6828 11.3203C33.6984 10.7734 32.6375 10.5 31.5 10.5C30.3625 10.5 29.3016 10.7734 28.3172 11.3203C27.3328 11.8672 26.5344 12.6437 25.9219 13.65L23.8875 17.0625L20.7375 16.2094C20.3 16.1219 19.8734 16.0234 19.4578 15.9141C19.0422 15.8047 18.6156 15.75 18.1781 15.75C16.3844 15.75 14.875 16.3844 13.65 17.6531C12.425 18.9219 11.8125 20.475 11.8125 22.3125C11.8125 23.5812 12.1406 24.7297 12.7969 25.7578C13.4531 26.7859 14.35 27.5844 15.4875 28.1531L18.375 29.5969V42ZM13.125 47.25H18.375V52.5H44.625V47.25H49.875V57.75H13.125V47.25Z" fill="#473D34"/>
<path d="M88.28 50.52C88.9733 50.0133 89.6 49.4 90.16 48.68C90.72 47.9333 91.1867 47.56 91.56 47.56C91.96 47.56 92.16 48.1467 92.16 49.32C92.16 50.4667 91.8267 51.56 91.16 52.6C90.52 53.6133 89.6667 54.4667 88.6 55.16C86.4133 56.6 83.8267 57.32 80.84 57.32C77.2133 57.32 74.4 56.4133 72.4 54.6C70.4 52.7867 69.4 50.2667 69.4 47.04C69.4 43.0667 70.36 39.2933 72.28 35.72C72.92 34.5467 73.64 33.4667 74.44 32.48C73.8267 31.76 73.3333 31.0133 72.96 30.24C72.6133 29.44 72.44 28.84 72.44 28.44C72.44 27.72 72.7067 27.36 73.24 27.36C73.6133 27.3867 74.04 27.64 74.52 28.12L75.76 29.32C76.08 29.64 76.4133 29.9067 76.76 30.12C79.4 27.88 82.24 26.76 85.28 26.76C88.3467 26.76 90.3333 27.6133 91.24 29.32C91.56 29.96 91.72 30.7467 91.72 31.68C91.72 33.0933 91.1067 34.28 89.88 35.24C88.6533 36.2 87 36.68 84.92 36.68C82.8667 36.68 80.7333 36.2533 78.52 35.4C76.6267 38.6267 75.68 42 75.68 45.52C75.68 50.4 77.6267 52.84 81.52 52.84C83.92 52.84 86.1733 52.0667 88.28 50.52ZM80.44 32.92C81.8 33.3733 83.28 33.6 84.88 33.6C86.48 33.6 87.28 33.16 87.28 32.28C87.28 31.24 86.6267 30.72 85.32 30.72C83.5333 30.72 81.9067 31.4533 80.44 32.92ZM118.435 31C118.435 31.2933 118.035 31.44 117.235 31.44C116.941 31.44 116.555 31.4 116.075 31.32C115.595 31.24 114.701 31.12 113.395 30.96C112.088 30.8 110.688 30.72 109.195 30.72C107.728 30.72 106.395 31.12 105.195 31.92C103.995 32.6933 102.981 33.6933 102.155 34.92C101.355 36.1467 100.728 37.52 100.275 39.04C99.848 40.56 99.6347 42.0533 99.6347 43.52C99.6347 46.1867 100.248 48.2667 101.475 49.76C102.701 51.2533 104.408 52 106.595 52C110.541 52 113.568 50.6 115.675 47.8C116.315 46.9467 116.835 46 117.235 44.96C115.288 44.72 113.795 44 112.755 42.8C111.715 41.5733 111.195 40.08 111.195 38.32C111.195 36.5333 111.688 35.12 112.675 34.08C113.661 33.04 114.981 32.52 116.635 32.52C118.315 32.52 119.595 33.16 120.475 34.44C121.381 35.6933 121.835 37.28 121.835 39.2C121.835 39.8667 121.808 40.4933 121.755 41.08C122.235 40.8667 122.635 40.64 122.955 40.4C123.275 40.16 123.595 40.04 123.915 40.04C124.448 40.04 124.715 40.2667 124.715 40.72C124.715 41.6533 124.395 42.4667 123.755 43.16C123.141 43.8267 122.315 44.3333 121.275 44.68C120.475 48.5733 118.768 51.6533 116.155 53.92C113.568 56.1867 110.208 57.32 106.075 57.32C101.941 57.32 98.7147 56.0667 96.3947 53.56C94.368 51.3467 93.3547 48.5067 93.3547 45.04C93.3547 42.6933 93.728 40.4267 94.4747 38.24C95.248 36.0533 96.328 34.12 97.7147 32.44C99.128 30.76 100.835 29.4133 102.835 28.4C104.835 27.3867 107.075 26.88 109.555 26.88C112.061 26.88 114.168 27.32 115.875 28.2C117.581 29.08 118.435 30.0133 118.435 31ZM117.155 36.04C116.595 36.04 116.315 36.4933 116.315 37.4C116.315 39 116.955 40.16 118.235 40.88C118.315 40.16 118.355 39.4133 118.355 38.64C118.355 36.9067 117.955 36.04 117.155 36.04ZM152.38 31C152.38 31.2933 151.98 31.44 151.18 31.44C150.887 31.44 150.5 31.4 150.02 31.32C149.54 31.24 148.647 31.12 147.34 30.96C146.033 30.8 144.633 30.72 143.14 30.72C141.673 30.72 140.34 31.12 139.14 31.92C137.94 32.6933 136.927 33.6933 136.1 34.92C135.3 36.1467 134.673 37.52 134.22 39.04C133.793 40.56 133.58 42.0533 133.58 43.52C133.58 46.1867 134.193 48.2667 135.42 49.76C136.647 51.2533 138.353 52 140.54 52C144.487 52 147.513 50.6 149.62 47.8C150.26 46.9467 150.78 46 151.18 44.96C149.233 44.72 147.74 44 146.7 42.8C145.66 41.5733 145.14 40.08 145.14 38.32C145.14 36.5333 145.633 35.12 146.62 34.08C147.607 33.04 148.927 32.52 150.58 32.52C152.26 32.52 153.54 33.16 154.42 34.44C155.327 35.6933 155.78 37.28 155.78 39.2C155.78 39.8667 155.753 40.4933 155.7 41.08C156.18 40.8667 156.58 40.64 156.9 40.4C157.22 40.16 157.54 40.04 157.86 40.04C158.393 40.04 158.66 40.2667 158.66 40.72C158.66 41.6533 158.34 42.4667 157.7 43.16C157.087 43.8267 156.26 44.3333 155.22 44.68C154.42 48.5733 152.713 51.6533 150.1 53.92C147.513 56.1867 144.153 57.32 140.02 57.32C135.887 57.32 132.66 56.0667 130.34 53.56C128.313 51.3467 127.3 48.5067 127.3 45.04C127.3 42.6933 127.673 40.4267 128.42 38.24C129.193 36.0533 130.273 34.12 131.66 32.44C133.073 30.76 134.78 29.4133 136.78 28.4C138.78 27.3867 141.02 26.88 143.5 26.88C146.007 26.88 148.113 27.32 149.82 28.2C151.527 29.08 152.38 30.0133 152.38 31ZM151.1 36.04C150.54 36.04 150.26 36.4933 150.26 37.4C150.26 39 150.9 40.16 152.18 40.88C152.26 40.16 152.3 39.4133 152.3 38.64C152.3 36.9067 151.9 36.04 151.1 36.04ZM168.365 55.24C168.365 56.8133 166.832 57.6 163.765 57.6C163.099 57.6 162.699 57.2667 162.565 56.6C162.459 55.9067 162.405 54.9733 162.405 53.8C162.405 51.5067 163.005 48.1067 164.205 43.6C165.405 39.0933 166.619 35.48 167.845 32.76C164.992 32.8133 162.859 33.3733 161.445 34.44C161.019 34.76 160.672 35.0533 160.405 35.32C160.139 35.56 159.899 35.68 159.685 35.68C159.499 35.68 159.312 35.5333 159.125 35.24C158.939 34.92 158.845 34.5467 158.845 34.12C158.845 32.6533 159.499 31.52 160.805 30.72C162.672 29.6 165.325 28.8533 168.765 28.48C170.285 28.32 171.672 28.24 172.925 28.24H173.005C173.192 28.24 173.445 28.3467 173.765 28.56C174.112 28.7733 174.285 29.12 174.285 29.6C174.285 30.08 174.192 30.6267 174.005 31.24C173.845 31.8267 173.619 32.2667 173.325 32.56C173.165 33.84 172.819 35.3733 172.285 37.16C171.752 38.9467 171.192 40.8533 170.605 42.88C169.112 48.1067 168.365 52.2267 168.365 55.24ZM188.125 47.56C188.579 47.56 188.805 48.1733 188.805 49.4C188.805 50.0667 188.525 50.88 187.965 51.84C187.405 52.7733 186.672 53.64 185.765 54.44C184.885 55.2133 183.899 55.8533 182.805 56.36C181.712 56.8667 180.672 57.12 179.685 57.12C178.699 57.12 177.925 56.9333 177.365 56.56C176.805 56.1867 176.365 55.68 176.045 55.04C175.592 54.1333 175.219 52.4133 174.925 49.88C174.632 47.32 174.339 45.5333 174.045 44.52C173.352 44.3867 172.739 44.12 172.205 43.72C171.699 43.2933 171.445 42.7867 171.445 42.2C171.445 41.5867 171.712 41.1467 172.245 40.88C172.805 40.6133 173.432 40.48 174.125 40.48C174.819 40.48 175.432 40.64 175.965 40.96C177.405 39.4133 178.712 37.3867 179.885 34.88C180.419 33.7333 180.925 32.56 181.405 31.36C181.912 30.1333 182.432 28.88 182.965 27.6C183.099 27.28 183.379 27.0933 183.805 27.04C184.259 26.96 184.845 26.92 185.565 26.92C186.285 26.92 186.792 27.16 187.085 27.64C187.379 28.0933 187.525 28.8533 187.525 29.92C187.525 30.96 187.245 32.16 186.685 33.52C186.125 34.88 185.405 36.2 184.525 37.48C182.685 40.1733 180.565 42.2 178.165 43.56C178.592 44.44 178.939 45.4133 179.205 46.48C179.472 47.52 179.725 48.4933 179.965 49.4C180.205 50.28 180.472 51.0267 180.765 51.64C181.085 52.2267 181.472 52.52 181.925 52.52C182.379 52.52 182.912 52.2667 183.525 51.76C184.165 51.2267 184.792 50.6533 185.405 50.04C186.019 49.4267 186.565 48.8667 187.045 48.36C187.552 47.8267 187.912 47.56 188.125 47.56ZM195.755 56.08C195.755 56.8267 195.222 57.2 194.155 57.2C192.475 57.2 191.329 56.88 190.715 56.24C190.102 55.5733 189.795 54.4667 189.795 52.92C189.822 50.52 190.475 46.68 191.755 41.4C193.062 36.12 194.289 32.2 195.435 29.64C195.729 28.9733 196.142 28.3467 196.675 27.76C197.209 27.1467 197.915 26.84 198.795 26.84C199.169 26.84 199.475 27.0667 199.715 27.52C199.982 27.9733 200.115 28.4933 200.115 29.08C200.115 29.6667 200.009 30.5467 199.795 31.72C199.582 32.8667 199.315 34.1867 198.995 35.68C198.675 37.1733 198.315 38.7867 197.915 40.52C196.475 47.1067 195.755 52.2933 195.755 56.08ZM225.042 50.44C225.042 51.8267 225.349 52.52 225.962 52.52C226.629 52.52 227.789 51.6933 229.442 50.04C229.869 49.6133 230.322 49.0933 230.802 48.48C231.282 47.8667 231.655 47.56 231.922 47.56C232.455 47.56 232.722 48.04 232.722 49C232.749 49.9333 232.482 50.88 231.922 51.84C231.362 52.7733 230.629 53.64 229.722 54.44C228.842 55.2133 227.855 55.8533 226.762 56.36C225.669 56.8667 224.602 57.12 223.562 57.12C221.989 57.12 220.895 56.7333 220.282 55.96C219.695 55.16 219.402 54.24 219.402 53.2C219.402 52.16 219.495 51.1333 219.682 50.12C220.002 48.52 220.935 45.4267 222.482 40.84C223.202 38.6533 223.562 37.0133 223.562 35.92C223.562 34.8267 223.349 33.96 222.922 33.32C222.522 32.68 221.895 32.36 221.042 32.36C220.215 32.36 219.402 32.6533 218.602 33.24C217.802 33.8 217.055 34.5467 216.362 35.48C215.109 37.1067 213.989 39.24 213.002 41.88C212.042 44.4933 211.415 46.76 211.122 48.68C211.629 51.1333 211.882 52.7333 211.882 53.48C211.882 55.0267 211.335 56.0667 210.242 56.6C209.735 56.84 209.242 57.0667 208.762 57.28C208.309 57.4933 207.815 57.6 207.282 57.6C205.949 57.6 205.282 56.3333 205.282 53.8C205.282 51.24 205.989 46.2533 207.402 38.84C207.909 36.1733 208.162 34.68 208.162 34.36C208.162 32.2 207.615 31.12 206.522 31.12C206.149 31.12 205.802 31.2267 205.482 31.44C205.189 31.6533 204.882 31.88 204.562 32.12C204.269 32.36 203.962 32.5867 203.642 32.8C203.322 33.0133 202.949 33.12 202.522 33.12C202.122 33.12 201.922 32.76 201.922 32.04C201.922 30.5733 202.602 29.3733 203.962 28.44C205.269 27.48 206.855 27 208.722 27C211.335 27 212.802 28.28 213.122 30.84C213.229 31.5867 213.269 32.4 213.242 33.28V33.56C214.255 31.6133 215.469 30.0267 216.882 28.8C218.322 27.5467 219.989 26.92 221.882 26.92C224.495 26.92 226.389 27.6133 227.562 29C230.015 31.96 229.895 36.84 227.202 43.64C226.669 45.0267 226.175 46.3067 225.722 47.48C225.269 48.6533 225.042 49.64 225.042 50.44ZM241.46 38.16C240.393 40.7733 239.86 43.2133 239.86 45.48C239.86 47.72 240.313 49.3733 241.22 50.44C242.153 51.5067 243.646 52.04 245.7 52.04C246.926 52.04 248.006 51.6 248.94 50.72C249.233 48.5333 249.473 47.08 249.66 46.36C250.113 44.6 250.806 43.72 251.74 43.72C252.486 43.72 253.193 44.24 253.86 45.28C254.526 46.2933 254.846 47.16 254.82 47.88C254.82 49.08 254.34 51.3067 253.38 54.56C255.246 53.1467 257.393 51.0533 259.82 48.28C260.166 47.88 260.46 47.68 260.7 47.68C261.073 47.68 261.26 48.12 261.26 49C261.26 50.7067 260.406 52.5333 258.7 54.48C256.993 56.4 254.726 57.9333 251.9 59.08C251.686 59.5867 251.513 60.0667 251.38 60.52C251.246 60.9733 251.073 61.52 250.86 62.16C250.646 62.8 250.273 63.4933 249.74 64.24C249.206 65.0133 248.54 65.6667 247.74 66.2C246.033 67.3733 244.073 67.96 241.86 67.96C239.673 67.96 237.833 67.4667 236.34 66.48C234.873 65.52 234.14 64.1867 234.14 62.48C234.14 61.6533 234.54 60.9733 235.34 60.44C236.14 59.9067 237.18 59.44 238.46 59.04C239.74 58.6667 241.18 58.3333 242.78 58.04C244.38 57.7467 245.98 57.4133 247.58 57.04C247.793 56.4267 247.953 55.8533 248.06 55.32C247.02 56.12 245.74 56.52 244.22 56.52C241.046 56.52 238.553 55.8667 236.74 54.56C234.633 53.04 233.58 50.6667 233.58 47.44C233.58 43.2267 234.646 39.2267 236.78 35.44C236.14 34.6933 235.62 33.92 235.22 33.12C234.82 32.2933 234.62 31.6667 234.62 31.24C234.62 30.4933 234.886 30.1333 235.42 30.16C235.766 30.16 236.166 30.3733 236.62 30.8C237.073 31.2267 237.433 31.5867 237.7 31.88C237.993 32.1733 238.3 32.44 238.62 32.68C240.006 30.92 241.633 29.4933 243.5 28.4C245.366 27.3067 247.42 26.76 249.66 26.76C251.9 26.76 253.646 27.1733 254.9 28C256.153 28.8267 256.78 30.2667 256.78 32.32C256.78 34.3733 255.98 36.08 254.38 37.44C252.806 38.8 250.606 39.48 247.78 39.48C245.833 39.48 243.726 39.04 241.46 38.16ZM242.78 35.44C244.246 36.08 246.02 36.4 248.1 36.4C249.38 36.4 250.406 36.0533 251.18 35.36C251.953 34.6667 252.34 33.92 252.34 33.12C252.34 32.2933 252.073 31.6933 251.54 31.32C251.033 30.92 250.353 30.72 249.5 30.72C246.94 30.72 244.7 32.2933 242.78 35.44ZM241.42 64.88C243.233 64.88 244.82 63.52 246.18 60.8C244.713 61.1733 243.473 61.4667 242.46 61.68C241.446 61.8933 240.62 62.08 239.98 62.24C239.366 62.4 238.913 62.56 238.62 62.72C238.353 62.88 238.22 63.1067 238.22 63.4C238.22 63.9067 238.553 64.2667 239.22 64.48C239.913 64.72 240.646 64.8533 241.42 64.88ZM280.59 37.04C281.55 37.04 282.457 37.96 283.31 39.8C284.564 38.4933 286.11 37.84 287.95 37.84C289.817 37.84 291.217 38.2533 292.15 39.08C293.084 39.88 293.55 41.0267 293.55 42.52C293.55 43.9867 293.35 45.48 292.95 47C292.577 48.52 292.297 49.6133 292.11 50.28C291.95 50.92 291.87 51.4533 291.87 51.88C291.87 52.3067 292.017 52.52 292.31 52.52C292.71 52.52 293.204 52.2667 293.79 51.76C294.377 51.2533 294.964 50.7067 295.55 50.12C296.137 49.5067 296.67 48.9467 297.15 48.44C297.657 47.9333 298.004 47.68 298.19 47.68C298.564 47.68 298.75 48.1333 298.75 49.04C298.75 50.9067 297.83 52.7067 295.99 54.44C292.897 56.2533 290.924 57.16 290.07 57.16C289.99 57.16 289.937 57.1467 289.91 57.12C287.777 57.12 286.71 55.4133 286.71 52C286.71 50.5333 286.844 49.1867 287.11 47.96C287.404 46.7333 287.617 45.84 287.75 45.28C287.884 44.72 287.95 44.1467 287.95 43.56C287.95 42.6 287.39 42.12 286.27 42.12C285.177 42.12 284.124 42.9467 283.11 44.6C282.124 46.2267 281.457 47.92 281.11 49.68V49.96C281.11 50.8667 281.244 51.8 281.51 52.76C281.804 53.72 281.95 54.3867 281.95 54.76C281.95 55.6667 280.817 56.56 278.55 57.44C278.204 57.5733 277.897 57.64 277.63 57.64C276.964 57.64 276.497 57.2933 276.23 56.6C275.99 55.9067 275.87 54.8267 275.87 53.36C275.87 49.5733 276.017 46.84 276.31 45.16C276.71 42.6533 277.617 40.32 279.03 38.16C279.51 37.4133 280.03 37.04 280.59 37.04ZM312.915 53.6C310.808 56.08 308.275 57.32 305.315 57.32C302.381 57.32 300.181 56.5733 298.715 55.08C297.248 53.56 296.528 51.68 296.555 49.44C296.528 46.2667 297.528 43.5333 299.555 41.24C301.581 38.9467 304.235 37.8 307.515 37.8C309.008 37.8 310.208 37.9867 311.115 38.36C312.688 39 313.475 39.6 313.475 40.16C313.475 40.5867 312.368 40.8133 310.155 40.84C307.968 40.84 306.128 41.6 304.635 43.12C303.168 44.6133 302.435 46.5067 302.435 48.8C302.435 50 302.781 51.0133 303.475 51.84C304.195 52.64 305.195 53.04 306.475 53.04C307.781 53.04 308.861 52.7733 309.715 52.24C307.821 50.96 306.875 49.1067 306.875 46.68C306.848 45.4 307.301 44.24 308.235 43.2C309.195 42.1333 310.408 41.6 311.875 41.6C313.368 41.5733 314.435 41.9733 315.075 42.8C315.715 43.6267 316.035 44.6933 316.035 46C316.035 47.28 315.728 48.64 315.115 50.08H315.355C316.528 50.0533 317.541 49.64 318.395 48.84C318.715 48.52 318.981 48.24 319.195 48C319.435 47.76 319.675 47.64 319.915 47.64C320.288 47.64 320.475 48.08 320.475 48.96C320.475 50.5867 319.995 51.8133 319.035 52.64C318.075 53.44 317.008 53.84 315.835 53.84C314.688 53.84 313.715 53.76 312.915 53.6ZM312.555 48.96C313.008 48 313.235 47.0667 313.235 46.16C313.235 45.2533 312.941 44.8 312.355 44.8C312.115 44.8 311.915 44.9733 311.755 45.32C311.595 45.6667 311.515 46 311.515 46.32C311.515 47.3867 311.861 48.2667 312.555 48.96ZM320.233 54.84C319.94 54.12 319.727 53.2933 319.593 52.36C319.46 51.4 319.393 50.0667 319.393 48.36C319.393 46.6533 319.713 44.3467 320.353 41.44H318.553C318.233 41.44 318.073 41.3067 318.073 41.04C318.073 40.4 318.127 39.88 318.233 39.48C318.367 39.0533 318.66 38.5733 319.113 38.04H320.073C320.447 38.04 320.847 38.0267 321.273 38C322.553 33.8933 323.86 31.84 325.193 31.84C326.26 31.8667 327.007 32.5467 327.433 33.88C327.54 34.2533 327.66 34.6533 327.793 35.08L326.153 37.96C328.02 38.0133 329.193 38.04 329.673 38.04C330.18 38.04 330.447 38.0933 330.473 38.2C330.527 38.28 330.553 38.4133 330.553 38.6C330.553 39.08 330.433 39.68 330.193 40.4C329.98 41.12 329.727 41.4667 329.433 41.44L325.433 41.24C324.873 44.4933 324.593 47.1867 324.593 49.32C324.593 51.4533 324.9 52.52 325.513 52.52C326.02 52.52 326.94 52.1067 328.273 51.28C329.607 50.4267 330.567 49.6133 331.153 48.84C331.74 48.0667 332.22 47.68 332.593 47.68C332.967 47.68 333.153 48.1333 333.153 49.04C333.153 49.9467 332.833 50.88 332.193 51.84C331.553 52.7733 330.74 53.64 329.753 54.44C328.793 55.2133 327.713 55.8533 326.513 56.36C325.34 56.8667 324.313 57.12 323.433 57.12C322.553 57.12 321.873 56.92 321.393 56.52C320.94 56.0933 320.553 55.5333 320.233 54.84ZM340.489 52.64C342.569 52.64 344.582 51.8133 346.529 50.16C347.249 49.5467 347.835 48.9867 348.289 48.48C348.742 47.9467 349.089 47.68 349.329 47.68C349.702 47.68 349.889 48.0533 349.889 48.8C349.889 49.5467 349.689 50.3867 349.289 51.32C348.889 52.2267 348.222 53.12 347.289 54C344.995 56.16 341.849 57.24 337.849 57.24C334.675 57.24 332.515 56.0933 331.369 53.8C330.969 53 330.769 51.8533 330.769 50.36C330.769 48.8667 331.062 47.32 331.649 45.72C332.235 44.0933 333.009 42.6933 333.969 41.52C334.955 40.3467 336.089 39.44 337.369 38.8C338.649 38.1333 340.009 37.8 341.449 37.8C342.915 37.8 344.035 38.16 344.809 38.88C345.609 39.6 346.009 40.5333 346.009 41.68C346.009 42.8267 345.715 43.7733 345.129 44.52C344.569 45.24 343.835 45.8533 342.929 46.36C342.022 46.84 341.009 47.28 339.889 47.68C338.795 48.0533 337.715 48.48 336.649 48.96V49.96C336.675 50.92 337.075 51.6 337.849 52C338.622 52.4 339.502 52.6133 340.489 52.64ZM339.809 41.36C338.422 41.36 337.462 42.9733 336.929 46.2C337.489 45.8267 338.009 45.4933 338.489 45.2C338.995 44.9067 339.435 44.6267 339.809 44.36C340.609 43.7733 341.022 43.1067 341.049 42.36C341.049 41.6933 340.635 41.36 339.809 41.36ZM354.888 47.64H348.688V45.32H354.888V39.04H357.368V45.32H363.568V47.64H357.368V53.92H354.888V47.64Z" fill="#473D34"/>
</svg>
