<svg width="128" height="42" viewBox="0 0 128 42" fill="none" xmlns="http://www.w3.org/2000/svg">
<rect width="127.642" height="41.6019" rx="5" fill="white"/>
<path d="M84.2861 22.4565V19.57C84.2861 17.1237 82.9178 16.0681 80.9787 16.0681C79.0396 16.0681 78.3276 16.7936 77.9072 17.2184C77.4822 16.7918 76.7769 16.0681 74.8347 16.0681C72.8925 16.0681 71.5237 17.1237 71.5237 19.57V22.6182C71.5237 23.7562 71.3531 24.6718 71.3292 24.8027H74.6907V19.878C74.6907 18.8183 74.6907 18.0634 75.531 18.0634C76.3714 18.0634 76.3682 18.8183 76.3682 19.878V24.8027H79.4438V19.8816C79.4438 18.8183 79.4438 18.0634 80.2851 18.0634C81.1218 18.0634 81.1218 18.8183 81.1218 19.8816V23.0937C81.1218 24.4006 81.9969 24.9911 83.0425 24.9911C83.5151 24.9911 84.2231 24.9911 84.8924 24.8543C85.0986 24.8122 85.0986 24.7751 84.9406 24.6143C84.7092 24.3856 84.2875 23.806 84.2875 22.4565H84.2861ZM30.7149 21.9878C29.8421 20.7986 29.0216 19.5035 29.0216 19.5035L33.0168 15.6022C32.3425 15.5496 31.319 15.3834 30.4061 15.5587C29.442 15.7466 28.8559 16.2362 27.9134 17.2641C26.9713 18.2925 26.0626 19.2929 26.0626 19.2929V12.2094H22.8866V22.5924C22.8866 23.7304 22.7173 24.6456 22.6921 24.8032H26.2597C26.2377 24.6456 26.0626 23.7304 26.0626 22.5924V20.4834L28.143 23.4813C28.7916 24.4337 29.6679 24.9449 30.7131 24.9635C31.7587 24.9821 32.3515 24.8974 33.2126 24.8086V24.7493C32.5752 24.3227 31.5868 23.1765 30.7149 21.9878ZM35.8385 15.4939C36.7527 15.4939 37.4954 14.7481 37.4954 13.8256C37.4954 12.9032 36.7527 12.1587 35.8385 12.1587C34.9243 12.1587 34.1817 12.9041 34.1817 13.8256C34.1817 14.7472 34.923 15.4939 35.8385 15.4939ZM37.426 16.703H34.2496V22.5919C34.2496 23.7299 34.079 24.6451 34.0529 24.8027H37.62C37.5962 24.6492 37.4265 23.7299 37.4265 22.5919L37.426 16.703ZM65.4882 15.863C62.9946 15.863 60.6288 17.7441 60.6288 20.4757C60.6288 23.2073 62.9964 25.0867 65.5075 25.0867C67.9791 25.0867 70.398 23.2594 70.398 20.4757C70.398 17.6038 67.8503 15.863 65.4882 15.863ZM65.5327 23.2445C64.0514 23.2445 63.8331 21.5984 63.8331 20.4757C63.8331 19.2852 64.0748 17.7124 65.5327 17.7124C66.9065 17.7124 67.1806 19.2888 67.1806 20.4662C67.1806 21.5848 66.9303 23.244 65.5327 23.244V23.2445ZM105.02 24.6143C104.797 24.3521 104.37 23.7634 104.37 22.4638V19.7172C104.37 18.5452 104.095 16.0636 100.061 16.0636C96.0263 16.0636 95.7563 18.5452 95.7563 19.6765L95.7545 22.831C95.7545 24.1157 93.6493 24.1157 93.6493 22.831V19.6765C93.6493 18.5226 93.729 16.0636 89.6303 16.0636C87.2604 16.0636 86.304 17.2383 86.646 18.8052C87.2208 18.4012 88.3925 17.986 89.2837 17.986C89.7401 17.986 90.4535 18.0928 90.4535 18.6634C90.4535 19.1693 89.9688 19.4111 89.3012 19.6103C87.8388 20.0478 85.5068 20.6646 85.5068 22.6635C85.5068 24.6623 87.8483 25.5911 90.4643 24.5518C90.7308 24.445 90.9248 24.3295 91.0688 24.2122C91.4276 24.5659 91.9798 24.8063 92.8256 24.8063C93.5291 24.8063 99.169 24.8027 99.169 24.8027C99.0281 24.5903 98.9196 23.8282 98.9196 22.798V19.6873C98.9196 19.2834 98.9304 18.0648 100.067 18.0648C101.204 18.0648 101.205 19.2834 101.205 19.6873V23.0932C101.205 24.4001 102.077 24.9907 103.11 24.9907C103.563 24.9907 104.276 24.9811 104.975 24.8539C105.188 24.8014 105.168 24.7914 105.018 24.6139L105.02 24.6143ZM88.3929 22.7744C88.3929 21.7039 89.7054 21.1147 90.4544 20.9322C90.4508 20.9472 90.4544 21.6817 90.4544 22.433C90.4544 22.7432 90.4873 23.0923 90.598 23.4261C89.791 23.8119 88.3929 23.7621 88.3929 22.7744Z" fill="#F08300"/>
<path d="M47.4994 21.9888C46.6271 20.7997 45.8075 19.5045 45.8075 19.5045L49.8018 15.6032C49.1284 15.5507 48.1066 15.3845 47.1929 15.5597C46.2288 15.7477 45.64 16.2372 44.7002 17.2652C43.7568 18.2936 42.8485 19.2939 42.8485 19.2939V12.2104H39.6729V22.5934C39.6729 23.7314 39.5041 24.6466 39.478 24.8042H43.0461C43.0226 24.6466 42.8485 23.7314 42.8485 22.5934V20.4845L44.9275 23.4823C45.5775 24.4347 46.4538 24.946 47.4999 24.9645C48.5446 24.9831 49.1378 24.8984 49.9989 24.8097V24.7503C49.3638 24.3237 48.3731 23.1776 47.4999 21.9888H47.4994Z" fill="#F08300"/>
<path d="M61.9157 25.2239C60.6202 24.5401 59.4374 23.0625 58.6726 21.9974C58.4948 21.7479 56.959 19.5035 56.959 19.5035L60.9493 15.6022C60.2777 15.5497 59.2537 15.3835 58.3404 15.5588C57.3781 15.7467 56.7912 16.2362 55.8491 17.2642C54.9795 18.2125 54.1409 19.1345 54.0162 19.2726V12.2095H50.8304V22.5924C50.8304 23.7304 50.6706 24.6456 50.6436 24.8032H54.2125C54.1895 24.6456 54.0158 23.7304 54.0158 22.5924V20.4835C54.0158 20.4835 54.9835 21.8271 56.2065 23.5901C57.722 25.7791 59.0116 25.5613 61.8585 25.4205C62.1115 25.3675 62.0489 25.2842 61.9152 25.223L61.9157 25.2239Z" fill="#F08300"/>
<path d="M109.849 10.5519C109.682 11.1129 109.277 10.8335 109.277 10.5156C109.277 10.0877 109.421 9.96496 109.421 9.96496L109.128 9.62035H107.841V9.22365H108.869L109.333 8.19206L109.118 7.8017H108.533V7.32258H109.355L109.503 6.96528H109.847V6.91909H108.531V6.73931L108.268 6.58398L108.016 6.73931V6.92272H106.424V6.73931L106.172 6.58398L105.908 6.73931V6.91909H104.592V6.96528H104.936L105.083 7.32258H105.905V7.8017H105.322L105.106 8.19206L105.569 9.22365H106.599V9.62035H105.312L105.018 9.96496C105.018 9.96496 105.162 10.0877 105.162 10.5156C105.162 10.8331 104.757 11.1125 104.589 10.5519C104.589 10.5519 104.486 11.5255 105.094 11.5255C105.497 11.5255 105.69 10.9359 105.553 10.0764H106.598V10.7081H106.245V10.3825L106.097 10.2765L105.937 10.3866V11.1184L106.266 11.4571C106.266 11.4571 106.608 11.1347 107.219 11.1342C107.829 11.1347 108.173 11.4571 108.173 11.4571L108.501 11.1184V10.3866L108.342 10.2765L108.193 10.3825V10.7081H107.84V10.0764H108.885C108.75 10.9354 108.941 11.5255 109.344 11.5255C109.953 11.5255 109.849 10.5519 109.849 10.5519H109.849ZM106.602 8.42346H106.1L106.18 8.59238H106.602V8.82967H105.782L105.496 8.19206H106.602V8.42346ZM107.219 7.8017H106.428V7.32802H108.01V7.8017H107.219ZM107.836 8.82967V8.59238H108.26L108.339 8.42346H107.836V8.19206H108.944L108.658 8.82967H107.836Z" fill="#F08300"/>
<path d="M103.431 7.20901V11.0922L107.219 12.9806L111.009 11.0922V7.20901L107.219 5.34961L103.431 7.20901ZM107.219 5.56018C107.299 5.59868 110.72 7.27785 110.821 7.32721V10.9754C110.72 11.0252 107.3 12.7284 107.219 12.7691C107.139 12.7284 103.719 11.0256 103.619 10.9754V7.32721C103.72 7.27739 107.139 5.59868 107.219 5.56018Z" fill="#F08300"/>
<path d="M113.232 5.79535L107.223 2.83643L101.204 5.79535V12.469L107.219 15.4945L113.232 12.469V5.79535ZM111.392 11.3247L107.221 13.382L103.044 11.3319V6.97865L107.218 4.92995L111.392 6.9705V11.3247Z" fill="#F08300"/>
<path d="M28.5463 31.5641L29.5473 31.8091C29.4353 32.0798 29.3116 32.3575 29.1763 32.6421C29.0456 32.9268 28.9103 33.2068 28.7703 33.4821C28.6303 33.7575 28.4903 34.0211 28.3503 34.2731C28.2149 34.5205 28.0819 34.7445 27.9513 34.9451L27.1673 34.7001C27.2933 34.4855 27.4216 34.2498 27.5523 33.9931C27.6829 33.7318 27.8089 33.4635 27.9303 33.1881C28.0563 32.9081 28.1706 32.6305 28.2733 32.3551C28.3806 32.0751 28.4716 31.8115 28.5463 31.5641ZM26.3623 34.4411C26.6889 34.4271 27.0576 34.4131 27.4683 34.3991C27.8789 34.3805 28.3129 34.3618 28.7703 34.3431C29.2276 34.3198 29.6919 34.2965 30.1633 34.2731C30.6393 34.2498 31.1083 34.2265 31.5703 34.2031L31.5423 35.0291C30.9449 35.0665 30.3406 35.1038 29.7293 35.1411C29.1179 35.1785 28.5323 35.2111 27.9723 35.2391C27.4169 35.2718 26.9153 35.3021 26.4673 35.3301L26.3623 34.4411ZM29.9043 33.1041L30.7163 32.7331C30.9216 32.9851 31.1269 33.2558 31.3323 33.5451C31.5376 33.8345 31.7266 34.1191 31.8993 34.3991C32.0766 34.6745 32.2213 34.9265 32.3333 35.1551L31.4583 35.6171C31.3649 35.3885 31.2319 35.1295 31.0593 34.8401C30.8866 34.5461 30.6999 34.2475 30.4993 33.9441C30.2986 33.6408 30.1003 33.3608 29.9043 33.1041ZM27.8043 29.1631L28.7633 29.4291C28.6139 29.7978 28.4343 30.1595 28.2243 30.5141C28.0189 30.8688 27.7996 31.2001 27.5663 31.5081C27.3329 31.8115 27.0973 32.0751 26.8593 32.2991C26.8033 32.2338 26.7239 32.1638 26.6213 32.0891C26.5233 32.0098 26.4206 31.9328 26.3133 31.8581C26.2106 31.7788 26.1219 31.7158 26.0473 31.6691C26.2899 31.4778 26.5209 31.2491 26.7403 30.9831C26.9643 30.7171 27.1673 30.4278 27.3493 30.1151C27.5313 29.8025 27.6829 29.4851 27.8043 29.1631ZM30.6253 29.1771C30.7279 29.3825 30.8493 29.5948 30.9893 29.8141C31.1339 30.0335 31.2903 30.2505 31.4583 30.4651C31.6309 30.6751 31.8036 30.8758 31.9763 31.0671C32.1489 31.2538 32.3146 31.4218 32.4733 31.5711C32.3986 31.6271 32.3169 31.6995 32.2283 31.7881C32.1396 31.8721 32.0533 31.9608 31.9693 32.0541C31.8853 32.1428 31.8176 32.2268 31.7663 32.3061C31.5983 32.1288 31.4256 31.9305 31.2483 31.7111C31.0709 31.4871 30.8936 31.2538 30.7163 31.0111C30.5436 30.7638 30.3756 30.5141 30.2123 30.2621C30.0536 30.0101 29.9089 29.7628 29.7783 29.5201L30.6253 29.1771ZM38.4373 29.4641L38.9903 29.0021C39.0976 29.0721 39.2096 29.1538 39.3263 29.2471C39.4476 29.3405 39.5596 29.4338 39.6623 29.5271C39.7696 29.6205 39.8559 29.7045 39.9213 29.7791L39.3263 30.2901C39.2703 30.2061 39.1909 30.1175 39.0883 30.0241C38.9903 29.9261 38.8829 29.8281 38.7663 29.7301C38.6543 29.6321 38.5446 29.5435 38.4373 29.4641ZM33.7963 30.1991H40.0963V31.0181H33.7963V30.1991ZM34.0623 31.8161H37.0933V32.6281H34.0623V31.8161ZM35.1193 32.2781H35.9593V34.6511H35.1193V32.2781ZM33.7963 34.5391C34.0763 34.4925 34.4053 34.4388 34.7833 34.3781C35.1659 34.3128 35.5696 34.2428 35.9943 34.1681C36.4236 34.0935 36.8506 34.0165 37.2753 33.9371L37.3313 34.6861C36.9486 34.7701 36.5613 34.8541 36.1693 34.9381C35.7773 35.0175 35.3993 35.0945 35.0353 35.1691C34.6713 35.2485 34.3353 35.3208 34.0273 35.3861L33.7963 34.5391ZM37.2403 29.0301H38.1433C38.1293 29.6088 38.1363 30.1735 38.1643 30.7241C38.1969 31.2748 38.2483 31.7905 38.3183 32.2711C38.3883 32.7518 38.4723 33.1741 38.5703 33.5381C38.6683 33.9021 38.7756 34.1868 38.8923 34.3921C39.0136 34.5975 39.1419 34.7001 39.2773 34.7001C39.3566 34.7001 39.4149 34.5998 39.4523 34.3991C39.4943 34.1985 39.5246 33.8765 39.5433 33.4331C39.6413 33.5311 39.7579 33.6268 39.8933 33.7201C40.0333 33.8135 40.1616 33.8811 40.2783 33.9231C40.2409 34.3665 40.1779 34.7095 40.0893 34.9521C40.0053 35.1901 39.8909 35.3535 39.7463 35.4421C39.6063 35.5355 39.4243 35.5821 39.2003 35.5821C38.9483 35.5821 38.7243 35.4958 38.5283 35.3231C38.3323 35.1505 38.1619 34.9125 38.0173 34.6091C37.8726 34.3011 37.7513 33.9395 37.6533 33.5241C37.5553 33.1088 37.4759 32.6585 37.4153 32.1731C37.3546 31.6831 37.3103 31.1721 37.2823 30.6401C37.2543 30.1081 37.2403 29.5715 37.2403 29.0301ZM46.3753 31.8581C46.3753 32.2921 46.3426 32.6865 46.2773 33.0411C46.2166 33.3911 46.1093 33.7108 45.9553 34.0001C45.8013 34.2848 45.5866 34.5415 45.3113 34.7701C45.0359 34.9988 44.6883 35.2065 44.2683 35.3931L43.5193 34.6861C43.8553 34.5695 44.1446 34.4388 44.3873 34.2941C44.6346 34.1495 44.8376 33.9721 44.9963 33.7621C45.1549 33.5475 45.2716 33.2908 45.3463 32.9921C45.4256 32.6888 45.4653 32.3225 45.4653 31.8931V30.0311C45.4653 29.8865 45.4606 29.7605 45.4513 29.6531C45.4419 29.5411 45.4326 29.4501 45.4233 29.3801H46.4243C46.4149 29.4501 46.4033 29.5411 46.3893 29.6531C46.3799 29.7605 46.3753 29.8865 46.3753 30.0311V31.8581ZM43.8483 29.4431C43.8389 29.5085 43.8296 29.5971 43.8203 29.7091C43.8109 29.8165 43.8063 29.9378 43.8063 30.0731V32.5791C43.8063 32.6818 43.8086 32.7821 43.8133 32.8801C43.8179 32.9735 43.8203 33.0575 43.8203 33.1321C43.8249 33.2021 43.8296 33.2628 43.8343 33.3141H42.8543C42.8636 33.2628 42.8706 33.2021 42.8753 33.1321C42.8799 33.0575 42.8846 32.9735 42.8893 32.8801C42.8939 32.7821 42.8963 32.6818 42.8963 32.5791V30.0731C42.8963 29.9705 42.8916 29.8655 42.8823 29.7581C42.8776 29.6508 42.8683 29.5458 42.8543 29.4431H43.8483ZM41.5383 30.7031C41.5849 30.7078 41.6456 30.7171 41.7203 30.7311C41.7949 30.7405 41.8813 30.7498 41.9793 30.7591C42.0773 30.7638 42.1846 30.7661 42.3013 30.7661H46.8933C47.0799 30.7661 47.2316 30.7615 47.3483 30.7521C47.4649 30.7428 47.5699 30.7311 47.6633 30.7171V31.6481C47.5886 31.6388 47.4883 31.6341 47.3623 31.6341C47.2363 31.6295 47.0799 31.6271 46.8933 31.6271H42.3013C42.1846 31.6271 42.0773 31.6295 41.9793 31.6341C41.8859 31.6341 41.8019 31.6365 41.7273 31.6411C41.6573 31.6458 41.5943 31.6505 41.5383 31.6551V30.7031ZM49.2733 32.2291C49.9033 32.0658 50.4726 31.8768 50.9813 31.6621C51.4946 31.4428 51.9449 31.2141 52.3323 30.9761C52.5749 30.8268 52.8176 30.6565 53.0603 30.4651C53.3076 30.2691 53.5386 30.0685 53.7533 29.8631C53.9726 29.6578 54.1569 29.4618 54.3063 29.2751L55.0623 29.9961C54.8476 30.2061 54.6119 30.4185 54.3553 30.6331C54.1033 30.8478 53.8396 31.0531 53.5643 31.2491C53.2889 31.4451 53.0159 31.6248 52.7453 31.7881C52.4793 31.9421 52.1806 32.1008 51.8493 32.2641C51.5226 32.4275 51.1773 32.5815 50.8133 32.7261C50.4493 32.8708 50.0829 32.9991 49.7143 33.1111L49.2733 32.2291ZM52.1853 31.4241L53.1793 31.1931V34.3431C53.1793 34.4458 53.1816 34.5578 53.1863 34.6791C53.1909 34.8005 53.1979 34.9125 53.2073 35.0151C53.2166 35.1225 53.2283 35.2041 53.2423 35.2601H52.1363C52.1456 35.2041 52.1526 35.1225 52.1573 35.0151C52.1666 34.9125 52.1736 34.8005 52.1783 34.6791C52.1829 34.5578 52.1853 34.4458 52.1853 34.3431V31.4241ZM58.7373 34.2801C58.7373 34.1915 58.7373 34.0468 58.7373 33.8461C58.7373 33.6408 58.7373 33.4051 58.7373 33.1391C58.7373 32.8685 58.7373 32.5861 58.7373 32.2921C58.7373 31.9981 58.7373 31.7158 58.7373 31.4451C58.7373 31.1698 58.7373 30.9271 58.7373 30.7171C58.7373 30.5071 58.7373 30.3531 58.7373 30.2551C58.7373 30.1338 58.7303 29.9938 58.7163 29.8351C58.7069 29.6765 58.6906 29.5365 58.6673 29.4151H59.7593C59.7453 29.5365 59.7313 29.6718 59.7173 29.8211C59.7033 29.9658 59.6963 30.1105 59.6963 30.2551C59.6963 30.3858 59.6963 30.5631 59.6963 30.7871C59.6963 31.0111 59.6963 31.2608 59.6963 31.5361C59.6963 31.8068 59.6963 32.0845 59.6963 32.3691C59.6963 32.6491 59.6963 32.9198 59.6963 33.1811C59.6963 33.4425 59.6963 33.6711 59.6963 33.8671C59.6963 34.0585 59.6963 34.1961 59.6963 34.2801C59.6963 34.3455 59.6986 34.4388 59.7033 34.5601C59.7079 34.6768 59.7173 34.7981 59.7313 34.9241C59.7453 35.0501 59.7546 35.1621 59.7593 35.2601H58.6673C58.6859 35.1201 58.7023 34.9568 58.7163 34.7701C58.7303 34.5835 58.7373 34.4201 58.7373 34.2801ZM59.4863 31.2281C59.7196 31.2888 59.9809 31.3681 60.2703 31.4661C60.5596 31.5595 60.8513 31.6598 61.1453 31.7671C61.4393 31.8745 61.7146 31.9818 61.9713 32.0891C62.2326 32.1918 62.4496 32.2875 62.6223 32.3761L62.2233 33.3421C62.0273 33.2395 61.8103 33.1368 61.5723 33.0341C61.3343 32.9268 61.0916 32.8241 60.8443 32.7261C60.6016 32.6281 60.3613 32.5371 60.1233 32.4531C59.8899 32.3691 59.6776 32.2945 59.4863 32.2291V31.2281ZM66.9763 30.6541C67.1769 30.6728 67.3776 30.6891 67.5783 30.7031C67.7836 30.7125 67.9913 30.7171 68.2013 30.7171C68.6306 30.7171 69.0576 30.6985 69.4823 30.6611C69.9069 30.6238 70.2989 30.5655 70.6583 30.4861V31.3611C70.2943 31.4125 69.8999 31.4545 69.4753 31.4871C69.0506 31.5151 68.6259 31.5291 68.2013 31.5291C67.9959 31.5291 67.7906 31.5268 67.5853 31.5221C67.3846 31.5128 67.1816 31.5011 66.9763 31.4871V30.6541ZM69.6363 29.4711C69.6269 29.5365 69.6176 29.6088 69.6083 29.6881C69.6036 29.7675 69.5989 29.8468 69.5943 29.9261C69.5896 30.0008 69.5849 30.1011 69.5803 30.2271C69.5756 30.3531 69.5733 30.4955 69.5733 30.6541C69.5733 30.8081 69.5733 30.9715 69.5733 31.1441C69.5733 31.4615 69.5779 31.7601 69.5873 32.0401C69.5966 32.3155 69.6083 32.5721 69.6223 32.8101C69.6363 33.0435 69.6479 33.2581 69.6573 33.4541C69.6713 33.6501 69.6783 33.8321 69.6783 34.0001C69.6783 34.1821 69.6526 34.3501 69.6013 34.5041C69.5546 34.6581 69.4776 34.7935 69.3703 34.9101C69.2629 35.0268 69.1206 35.1155 68.9433 35.1761C68.7706 35.2415 68.5583 35.2741 68.3063 35.2741C67.8209 35.2741 67.4383 35.1761 67.1583 34.9801C66.8783 34.7841 66.7383 34.5018 66.7383 34.1331C66.7383 33.8951 66.8013 33.6875 66.9273 33.5101C67.0533 33.3281 67.2329 33.1881 67.4663 33.0901C67.6996 32.9875 67.9749 32.9361 68.2923 32.9361C68.6236 32.9361 68.9246 32.9711 69.1953 33.0411C69.4659 33.1111 69.7133 33.2045 69.9373 33.3211C70.1613 33.4378 70.3596 33.5661 70.5323 33.7061C70.7096 33.8415 70.8683 33.9721 71.0083 34.0981L70.5253 34.8331C70.2593 34.5811 70.0003 34.3641 69.7483 34.1821C69.4963 34.0001 69.2443 33.8601 68.9923 33.7621C68.7449 33.6641 68.4883 33.6151 68.2223 33.6151C68.0263 33.6151 67.8653 33.6525 67.7393 33.7271C67.6179 33.8018 67.5573 33.9068 67.5573 34.0421C67.5573 34.1821 67.6203 34.2848 67.7463 34.3501C67.8723 34.4155 68.0263 34.4481 68.2083 34.4481C68.3529 34.4481 68.4673 34.4248 68.5513 34.3781C68.6353 34.3268 68.6936 34.2545 68.7263 34.1611C68.7636 34.0631 68.7823 33.9465 68.7823 33.8111C68.7823 33.6898 68.7776 33.5311 68.7683 33.3351C68.7589 33.1391 68.7473 32.9198 68.7333 32.6771C68.7239 32.4345 68.7146 32.1825 68.7053 31.9211C68.6959 31.6551 68.6913 31.3961 68.6913 31.1441C68.6913 30.8781 68.6889 30.6378 68.6843 30.4231C68.6843 30.2038 68.6843 30.0405 68.6843 29.9331C68.6843 29.8818 68.6796 29.8095 68.6703 29.7161C68.6609 29.6228 68.6493 29.5411 68.6353 29.4711H69.6363ZM66.2203 29.5481C66.2063 29.5948 66.1853 29.6601 66.1573 29.7441C66.1339 29.8281 66.1129 29.9098 66.0943 29.9891C66.0803 30.0685 66.0686 30.1291 66.0593 30.1711C66.0359 30.2691 66.0103 30.4021 65.9823 30.5701C65.9543 30.7335 65.9239 30.9201 65.8913 31.1301C65.8633 31.3355 65.8353 31.5478 65.8073 31.7671C65.7793 31.9818 65.7583 32.1871 65.7443 32.3831C65.7303 32.5745 65.7233 32.7401 65.7233 32.8801C65.7233 32.9501 65.7233 33.0271 65.7233 33.1111C65.7279 33.1905 65.7373 33.2651 65.7513 33.3351C65.7839 33.2511 65.8166 33.1695 65.8493 33.0901C65.8866 33.0108 65.9239 32.9315 65.9613 32.8521C65.9986 32.7728 66.0336 32.6935 66.0663 32.6141L66.4933 32.9641C66.4279 33.1555 66.3603 33.3561 66.2903 33.5661C66.2249 33.7761 66.1643 33.9745 66.1083 34.1611C66.0569 34.3478 66.0173 34.5041 65.9893 34.6301C65.9799 34.6768 65.9706 34.7328 65.9613 34.7981C65.9566 34.8635 65.9543 34.9171 65.9543 34.9591C65.9543 34.9965 65.9543 35.0408 65.9543 35.0921C65.9589 35.1481 65.9636 35.1995 65.9683 35.2461L65.1773 35.3091C65.1026 35.0618 65.0373 34.7468 64.9813 34.3641C64.9253 33.9768 64.8973 33.5451 64.8973 33.0691C64.8973 32.8078 64.9089 32.5348 64.9323 32.2501C64.9556 31.9608 64.9813 31.6831 65.0093 31.4171C65.0419 31.1511 65.0746 30.9085 65.1073 30.6891C65.1399 30.4651 65.1656 30.2855 65.1843 30.1501C65.1983 30.0521 65.2123 29.9425 65.2263 29.8211C65.2403 29.6951 65.2496 29.5761 65.2543 29.4641L66.2203 29.5481ZM73.4653 29.8631C73.7219 29.8911 74.0113 29.9121 74.3333 29.9261C74.6553 29.9401 75.0006 29.9471 75.3693 29.9471C75.5979 29.9471 75.8336 29.9425 76.0763 29.9331C76.3236 29.9238 76.5616 29.9121 76.7903 29.8981C77.0189 29.8841 77.2219 29.8678 77.3993 29.8491V30.7801C77.2359 30.7941 77.0376 30.8081 76.8043 30.8221C76.5756 30.8361 76.3353 30.8478 76.0833 30.8571C75.8359 30.8618 75.6003 30.8641 75.3763 30.8641C75.0123 30.8641 74.6739 30.8571 74.3613 30.8431C74.0486 30.8291 73.7499 30.8105 73.4653 30.7871V29.8631ZM74.0533 32.8311C74.0206 32.9525 73.9926 33.0715 73.9693 33.1881C73.9459 33.3048 73.9343 33.4215 73.9343 33.5381C73.9343 33.7621 74.0463 33.9465 74.2703 34.0911C74.4989 34.2358 74.8653 34.3081 75.3693 34.3081C75.6866 34.3081 75.9923 34.2965 76.2863 34.2731C76.5803 34.2498 76.8579 34.2171 77.1193 34.1751C77.3853 34.1331 77.6209 34.0841 77.8263 34.0281L77.8333 35.0151C77.6279 35.0618 77.3993 35.1015 77.1473 35.1341C76.8953 35.1715 76.6223 35.1995 76.3283 35.2181C76.0389 35.2415 75.7309 35.2531 75.4043 35.2531C74.8723 35.2531 74.4266 35.1948 74.0673 35.0781C73.7079 34.9615 73.4396 34.7935 73.2623 34.5741C73.0849 34.3501 72.9963 34.0771 72.9963 33.7551C72.9963 33.5498 73.0126 33.3631 73.0453 33.1951C73.0779 33.0271 73.1083 32.8778 73.1363 32.7471L74.0533 32.8311ZM82.8103 29.3731C82.7729 29.4945 82.7403 29.6158 82.7123 29.7371C82.6889 29.8538 82.6656 29.9705 82.6423 30.0871C82.6189 30.1991 82.5909 30.3275 82.5583 30.4721C82.5303 30.6168 82.4976 30.7708 82.4603 30.9341C82.4276 31.0928 82.3903 31.2538 82.3483 31.4171C82.3109 31.5805 82.2713 31.7415 82.2293 31.9001C82.1873 32.0541 82.1476 32.1965 82.1103 32.3271C82.3949 32.1685 82.6773 32.0565 82.9573 31.9911C83.2373 31.9211 83.5336 31.8861 83.8463 31.8861C84.2243 31.8861 84.5533 31.9491 84.8333 32.0751C85.1179 32.2011 85.3373 32.3761 85.4913 32.6001C85.6499 32.8241 85.7293 33.0855 85.7293 33.3841C85.7293 33.7761 85.6383 34.1075 85.4563 34.3781C85.2789 34.6488 85.0223 34.8611 84.6863 35.0151C84.3549 35.1691 83.9559 35.2671 83.4893 35.3091C83.0273 35.3511 82.5139 35.3418 81.9493 35.2811L81.7043 34.3781C82.0869 34.4435 82.4603 34.4761 82.8243 34.4761C83.1929 34.4761 83.5243 34.4411 83.8183 34.3711C84.1123 34.3011 84.3456 34.1891 84.5183 34.0351C84.6956 33.8765 84.7843 33.6688 84.7843 33.4121C84.7843 33.2021 84.6956 33.0225 84.5183 32.8731C84.3409 32.7191 84.0819 32.6421 83.7413 32.6421C83.3353 32.6421 82.9619 32.7121 82.6213 32.8521C82.2853 32.9921 82.0123 33.1951 81.8023 33.4611C81.7696 33.5125 81.7369 33.5615 81.7043 33.6081C81.6763 33.6548 81.6436 33.7085 81.6063 33.7691L80.7803 33.4751C80.9109 33.2231 81.0323 32.9361 81.1443 32.6141C81.2563 32.2921 81.3566 31.9678 81.4453 31.6411C81.5339 31.3145 81.6063 31.0111 81.6623 30.7311C81.7183 30.4465 81.7579 30.2155 81.7813 30.0381C81.8046 29.8888 81.8186 29.7628 81.8233 29.6601C81.8279 29.5528 81.8256 29.4431 81.8163 29.3311L82.8103 29.3731ZM80.3673 30.1921C80.5913 30.2295 80.8339 30.2621 81.0953 30.2901C81.3566 30.3135 81.5969 30.3251 81.8163 30.3251C82.0403 30.3251 82.2853 30.3181 82.5513 30.3041C82.8219 30.2901 83.1066 30.2691 83.4053 30.2411C83.7039 30.2131 84.0026 30.1781 84.3013 30.1361C84.6046 30.0895 84.9009 30.0358 85.1903 29.9751L85.2043 30.8081C84.9803 30.8455 84.7259 30.8828 84.4413 30.9201C84.1613 30.9575 83.8673 30.9925 83.5593 31.0251C83.2513 31.0531 82.9479 31.0765 82.6493 31.0951C82.3506 31.1138 82.0753 31.1231 81.8233 31.1231C81.5526 31.1231 81.2936 31.1185 81.0463 31.1091C80.8036 31.0951 80.5773 31.0788 80.3673 31.0601V30.1921ZM89.6773 29.3171C89.8453 29.3685 90.0553 29.4221 90.3073 29.4781C90.5593 29.5341 90.8229 29.5901 91.0983 29.6461C91.3736 29.6975 91.6326 29.7418 91.8753 29.7791C92.1226 29.8165 92.3233 29.8445 92.4773 29.8631L92.2673 30.7171C92.1273 30.6985 91.9569 30.6728 91.7563 30.6401C91.5603 30.6028 91.3503 30.5631 91.1263 30.5211C90.9069 30.4791 90.6899 30.4371 90.4753 30.3951C90.2606 30.3485 90.0646 30.3041 89.8873 30.2621C89.7099 30.2201 89.5653 30.1851 89.4533 30.1571L89.6773 29.3171ZM89.7193 30.7241C89.6959 30.8175 89.6703 30.9388 89.6423 31.0881C89.6189 31.2328 89.5956 31.3845 89.5723 31.5431C89.5489 31.7018 89.5256 31.8535 89.5023 31.9981C89.4836 32.1428 89.4673 32.2641 89.4533 32.3621C89.7706 32.1335 90.1019 31.9655 90.4473 31.8581C90.7973 31.7508 91.1543 31.6971 91.5183 31.6971C91.9289 31.6971 92.2789 31.7718 92.5683 31.9211C92.8576 32.0705 93.0769 32.2665 93.2263 32.5091C93.3803 32.7518 93.4573 33.0155 93.4573 33.3001C93.4573 33.6175 93.3896 33.9115 93.2543 34.1821C93.1189 34.4528 92.8973 34.6838 92.5893 34.8751C92.2813 35.0665 91.8776 35.2018 91.3783 35.2811C90.8789 35.3605 90.2653 35.3698 89.5373 35.3091L89.2713 34.3921C89.9713 34.4855 90.5593 34.4995 91.0353 34.4341C91.5113 34.3641 91.8706 34.2288 92.1133 34.0281C92.3606 33.8228 92.4843 33.5731 92.4843 33.2791C92.4843 33.1251 92.4399 32.9898 92.3513 32.8731C92.2626 32.7518 92.1389 32.6585 91.9803 32.5931C91.8216 32.5231 91.6419 32.4881 91.4413 32.4881C91.0493 32.4881 90.6806 32.5605 90.3353 32.7051C89.9946 32.8451 89.7146 33.0481 89.4953 33.3141C89.4346 33.3888 89.3833 33.4588 89.3413 33.5241C89.3039 33.5848 89.2689 33.6501 89.2363 33.7201L88.4313 33.5171C88.4593 33.3818 88.4873 33.2231 88.5153 33.0411C88.5433 32.8545 88.5713 32.6561 88.5993 32.4461C88.6273 32.2315 88.6529 32.0168 88.6763 31.8021C88.6996 31.5875 88.7206 31.3751 88.7393 31.1651C88.7579 30.9551 88.7719 30.7638 88.7813 30.5911L89.7193 30.7241Z" fill="#473D34"/>
<path d="M99.7568 35.5465C99.5835 35.5465 99.4351 35.4848 99.3116 35.3614C99.1882 35.2379 99.1265 35.0895 99.1265 34.9162V30.5039C99.1265 30.3305 99.1882 30.1821 99.3116 30.0587C99.4351 29.9353 99.5835 29.8735 99.7568 29.8735H101.963V30.5039H99.7568V34.9162H104.169V32.71H104.799V34.9162C104.799 35.0895 104.738 35.2379 104.614 35.3614C104.491 35.4848 104.342 35.5465 104.169 35.5465H99.7568ZM101.238 33.8761L100.797 33.4349L103.728 30.5039H102.593V29.8735H104.799V32.0797H104.169V30.9451L101.238 33.8761Z" fill="#473D34"/>
<rect x="17" y="3" width="101" height="23" fill="#473D34"/>
</svg>
