<svg width="22" height="22" viewBox="0 0 22 22" fill="none" xmlns="http://www.w3.org/2000/svg">
<path d="M11.4357 15.423L19.1128 7.74587L17.9212 6.55421L10.2441 14.2313L11.4357 15.423ZM5.45449 17.4167C3.92671 17.3403 2.78852 17.0195 2.03991 16.4542C1.2913 15.8889 0.916992 15.0716 0.916992 14.0021C0.916992 13.0091 1.32567 12.2032 2.14303 11.5844C2.96039 10.9657 4.09477 10.5952 5.54616 10.473C6.14199 10.4271 6.58887 10.3316 6.88678 10.1865C7.1847 10.0414 7.33366 9.83893 7.33366 9.57921C7.33366 9.18199 7.10831 8.88407 6.65762 8.68546C6.20692 8.48685 5.46213 8.34171 4.42324 8.25004L4.58366 6.41671C6.15727 6.53893 7.31456 6.85594 8.05553 7.36775C8.79651 7.87955 9.16699 8.61671 9.16699 9.57921C9.16699 10.3889 8.87289 11.023 8.2847 11.4813C7.69651 11.9396 6.82949 12.2146 5.68366 12.3063C4.70588 12.3827 3.97255 12.5622 3.48366 12.8448C2.99477 13.1275 2.75033 13.5132 2.75033 14.0021C2.75033 14.5368 2.96421 14.9226 3.39199 15.1594C3.81977 15.3962 4.53783 15.5375 5.54616 15.5834L5.45449 17.4167ZM11.8712 17.5771L8.08991 13.7959L16.8441 5.04171C17.1496 4.73615 17.5125 4.58337 17.9326 4.58337C18.3528 4.58337 18.7156 4.73615 19.0212 5.04171L20.6253 6.64587C20.9309 6.95143 21.0837 7.31428 21.0837 7.73442C21.0837 8.15455 20.9309 8.5174 20.6253 8.82296L11.8712 17.5771ZM8.22741 18.3334C7.96769 18.3945 7.73852 18.3257 7.53991 18.1271C7.3413 17.9285 7.27255 17.6993 7.33366 17.4396L8.08991 13.7959L11.8712 17.5771L8.22741 18.3334Z" fill="#F7AE41"/>
</svg>
