<svg width="128" height="42" viewBox="0 0 128 42" fill="none" xmlns="http://www.w3.org/2000/svg">
<rect width="127.642" height="41.6019" rx="5" fill="white"/>
<path d="M84.2861 22.4565V19.57C84.2861 17.1237 82.9178 16.0681 80.9787 16.0681C79.0396 16.0681 78.3276 16.7936 77.9072 17.2184C77.4822 16.7918 76.7769 16.0681 74.8347 16.0681C72.8925 16.0681 71.5237 17.1237 71.5237 19.57V22.6182C71.5237 23.7562 71.3531 24.6718 71.3292 24.8027H74.6907V19.878C74.6907 18.8183 74.6907 18.0634 75.531 18.0634C76.3714 18.0634 76.3682 18.8183 76.3682 19.878V24.8027H79.4438V19.8816C79.4438 18.8183 79.4438 18.0634 80.2851 18.0634C81.1218 18.0634 81.1218 18.8183 81.1218 19.8816V23.0937C81.1218 24.4006 81.9969 24.9911 83.0425 24.9911C83.5151 24.9911 84.2231 24.9911 84.8924 24.8543C85.0986 24.8122 85.0986 24.7751 84.9406 24.6143C84.7092 24.3856 84.2875 23.806 84.2875 22.4565H84.2861ZM30.7149 21.9878C29.8421 20.7986 29.0216 19.5035 29.0216 19.5035L33.0168 15.6022C32.3425 15.5496 31.319 15.3834 30.4061 15.5587C29.442 15.7466 28.8559 16.2362 27.9134 17.2641C26.9713 18.2925 26.0626 19.2929 26.0626 19.2929V12.2094H22.8866V22.5924C22.8866 23.7304 22.7173 24.6456 22.6921 24.8032H26.2597C26.2377 24.6456 26.0626 23.7304 26.0626 22.5924V20.4834L28.143 23.4813C28.7916 24.4337 29.6679 24.9449 30.7131 24.9635C31.7587 24.9821 32.3515 24.8974 33.2126 24.8086V24.7493C32.5752 24.3227 31.5868 23.1765 30.7149 21.9878ZM35.8385 15.4939C36.7527 15.4939 37.4954 14.7481 37.4954 13.8256C37.4954 12.9032 36.7527 12.1587 35.8385 12.1587C34.9243 12.1587 34.1817 12.9041 34.1817 13.8256C34.1817 14.7472 34.923 15.4939 35.8385 15.4939ZM37.426 16.703H34.2496V22.5919C34.2496 23.7299 34.079 24.6451 34.0529 24.8027H37.62C37.5962 24.6492 37.4265 23.7299 37.4265 22.5919L37.426 16.703ZM65.4882 15.863C62.9946 15.863 60.6288 17.7441 60.6288 20.4757C60.6288 23.2073 62.9964 25.0867 65.5075 25.0867C67.9791 25.0867 70.398 23.2594 70.398 20.4757C70.398 17.6038 67.8503 15.863 65.4882 15.863ZM65.5327 23.2445C64.0514 23.2445 63.8331 21.5984 63.8331 20.4757C63.8331 19.2852 64.0748 17.7124 65.5327 17.7124C66.9065 17.7124 67.1806 19.2888 67.1806 20.4662C67.1806 21.5848 66.9303 23.244 65.5327 23.244V23.2445ZM105.02 24.6143C104.797 24.3521 104.37 23.7634 104.37 22.4638V19.7172C104.37 18.5452 104.095 16.0636 100.061 16.0636C96.0263 16.0636 95.7563 18.5452 95.7563 19.6765L95.7545 22.831C95.7545 24.1157 93.6493 24.1157 93.6493 22.831V19.6765C93.6493 18.5226 93.729 16.0636 89.6303 16.0636C87.2604 16.0636 86.304 17.2383 86.646 18.8052C87.2208 18.4012 88.3925 17.986 89.2837 17.986C89.7401 17.986 90.4535 18.0928 90.4535 18.6634C90.4535 19.1693 89.9688 19.4111 89.3012 19.6103C87.8388 20.0478 85.5068 20.6646 85.5068 22.6635C85.5068 24.6623 87.8483 25.5911 90.4643 24.5518C90.7308 24.445 90.9248 24.3295 91.0688 24.2122C91.4276 24.5659 91.9798 24.8063 92.8256 24.8063C93.5291 24.8063 99.169 24.8027 99.169 24.8027C99.0281 24.5903 98.9196 23.8282 98.9196 22.798V19.6873C98.9196 19.2834 98.9304 18.0648 100.067 18.0648C101.204 18.0648 101.205 19.2834 101.205 19.6873V23.0932C101.205 24.4001 102.077 24.9907 103.11 24.9907C103.563 24.9907 104.276 24.9811 104.975 24.8539C105.188 24.8014 105.168 24.7914 105.018 24.6139L105.02 24.6143ZM88.3929 22.7744C88.3929 21.7039 89.7054 21.1147 90.4544 20.9322C90.4508 20.9472 90.4544 21.6817 90.4544 22.433C90.4544 22.7432 90.4873 23.0923 90.598 23.4261C89.791 23.8119 88.3929 23.7621 88.3929 22.7744Z" fill="#F08300"/>
<path d="M47.4994 21.9888C46.6271 20.7997 45.8075 19.5045 45.8075 19.5045L49.8018 15.6032C49.1284 15.5507 48.1066 15.3845 47.1929 15.5597C46.2288 15.7477 45.64 16.2372 44.7002 17.2652C43.7568 18.2936 42.8485 19.2939 42.8485 19.2939V12.2104H39.6729V22.5934C39.6729 23.7314 39.5041 24.6466 39.478 24.8042H43.0461C43.0226 24.6466 42.8485 23.7314 42.8485 22.5934V20.4845L44.9275 23.4823C45.5775 24.4347 46.4538 24.946 47.4999 24.9645C48.5446 24.9831 49.1378 24.8984 49.9989 24.8097V24.7503C49.3638 24.3237 48.3731 23.1776 47.4999 21.9888H47.4994Z" fill="#F08300"/>
<path d="M61.9157 25.2239C60.6202 24.5401 59.4374 23.0625 58.6726 21.9974C58.4948 21.7479 56.959 19.5035 56.959 19.5035L60.9493 15.6022C60.2777 15.5497 59.2537 15.3835 58.3404 15.5588C57.3781 15.7467 56.7912 16.2362 55.8491 17.2642C54.9795 18.2125 54.1409 19.1345 54.0162 19.2726V12.2095H50.8304V22.5924C50.8304 23.7304 50.6706 24.6456 50.6436 24.8032H54.2125C54.1895 24.6456 54.0158 23.7304 54.0158 22.5924V20.4835C54.0158 20.4835 54.9835 21.8271 56.2065 23.5901C57.722 25.7791 59.0116 25.5613 61.8585 25.4205C62.1115 25.3675 62.0489 25.2842 61.9152 25.223L61.9157 25.2239Z" fill="#F08300"/>
<path d="M109.849 10.5519C109.682 11.1129 109.277 10.8335 109.277 10.5156C109.277 10.0877 109.421 9.96496 109.421 9.96496L109.128 9.62035H107.841V9.22365H108.869L109.333 8.19206L109.118 7.8017H108.533V7.32258H109.355L109.503 6.96528H109.847V6.91909H108.531V6.73931L108.268 6.58398L108.016 6.73931V6.92272H106.424V6.73931L106.172 6.58398L105.908 6.73931V6.91909H104.592V6.96528H104.936L105.083 7.32258H105.905V7.8017H105.322L105.106 8.19206L105.569 9.22365H106.599V9.62035H105.312L105.018 9.96496C105.018 9.96496 105.162 10.0877 105.162 10.5156C105.162 10.8331 104.757 11.1125 104.589 10.5519C104.589 10.5519 104.486 11.5255 105.094 11.5255C105.497 11.5255 105.69 10.9359 105.553 10.0764H106.598V10.7081H106.245V10.3825L106.097 10.2765L105.937 10.3866V11.1184L106.266 11.4571C106.266 11.4571 106.608 11.1347 107.219 11.1342C107.829 11.1347 108.173 11.4571 108.173 11.4571L108.501 11.1184V10.3866L108.342 10.2765L108.193 10.3825V10.7081H107.84V10.0764H108.885C108.75 10.9354 108.941 11.5255 109.344 11.5255C109.953 11.5255 109.849 10.5519 109.849 10.5519H109.849ZM106.602 8.42346H106.1L106.18 8.59238H106.602V8.82967H105.782L105.496 8.19206H106.602V8.42346ZM107.219 7.8017H106.428V7.32802H108.01V7.8017H107.219ZM107.836 8.82967V8.59238H108.26L108.339 8.42346H107.836V8.19206H108.944L108.658 8.82967H107.836Z" fill="#F08300"/>
<path d="M103.432 7.20901V11.0922L107.219 12.9806L111.009 11.0922V7.20901L107.219 5.34961L103.432 7.20901ZM107.219 5.56018C107.299 5.59868 110.72 7.27785 110.821 7.32721V10.9754C110.721 11.0252 107.3 12.7284 107.219 12.7691C107.139 12.7284 103.72 11.0256 103.619 10.9754V7.32721C103.72 7.27739 107.14 5.59868 107.219 5.56018Z" fill="#F08300"/>
<path d="M113.232 5.79535L107.223 2.83643L101.204 5.79535V12.469L107.219 15.4945L113.232 12.469V5.79535ZM111.392 11.3247L107.222 13.382L103.045 11.3319V6.97865L107.218 4.92995L111.392 6.9705V11.3247Z" fill="#F08300"/>
<path d="M27.1043 34.6721C27.1463 34.5835 27.1719 34.5065 27.1813 34.4411C27.1906 34.3758 27.1953 34.3011 27.1953 34.2171C27.1953 34.1285 27.1953 33.9931 27.1953 33.8111C27.1953 33.6291 27.1953 33.4191 27.1953 33.1811C27.1953 32.9385 27.1953 32.6841 27.1953 32.4181C27.1953 32.1521 27.1953 31.8908 27.1953 31.6341C27.1953 31.3775 27.1953 31.1441 27.1953 30.9341C27.1953 30.7241 27.1953 30.5538 27.1953 30.4231C27.1953 30.3345 27.1906 30.2411 27.1813 30.1431C27.1766 30.0451 27.1673 29.9518 27.1533 29.8631C27.1439 29.7698 27.1323 29.6905 27.1183 29.6251H28.2173C28.1986 29.7605 28.1823 29.8935 28.1683 30.0241C28.1543 30.1548 28.1473 30.2878 28.1473 30.4231C28.1473 30.5351 28.1473 30.6751 28.1473 30.8431C28.1473 31.0065 28.1473 31.1885 28.1473 31.3891C28.1473 31.5898 28.1473 31.7975 28.1473 32.0121C28.1473 32.2268 28.1473 32.4391 28.1473 32.6491C28.1473 32.8591 28.1473 33.0575 28.1473 33.2441C28.1473 33.4308 28.1473 33.5941 28.1473 33.7341C28.1473 33.8741 28.1473 33.9838 28.1473 34.0631C28.4319 33.9791 28.7353 33.8648 29.0573 33.7201C29.3839 33.5708 29.7106 33.3958 30.0373 33.1951C30.3686 32.9898 30.6789 32.7658 30.9683 32.5231C31.2623 32.2805 31.5213 32.0215 31.7453 31.7461L32.2423 32.5371C31.7663 33.1111 31.1759 33.6081 30.4713 34.0281C29.7713 34.4435 29.0083 34.7865 28.1823 35.0571C28.1356 35.0758 28.0749 35.0991 28.0003 35.1271C27.9256 35.1551 27.8486 35.1948 27.7693 35.2461L27.1043 34.6721ZM35.6023 29.4081C35.7143 29.4735 35.8426 29.5505 35.9873 29.6391C36.1319 29.7278 36.2789 29.8188 36.4283 29.9121C36.5823 30.0055 36.7246 30.0965 36.8553 30.1851C36.9906 30.2691 37.1049 30.3438 37.1983 30.4091L36.6733 31.1861C36.5799 31.1161 36.4656 31.0368 36.3303 30.9481C36.1949 30.8595 36.0549 30.7685 35.9103 30.6751C35.7656 30.5818 35.6209 30.4931 35.4763 30.4091C35.3363 30.3205 35.2079 30.2435 35.0913 30.1781L35.6023 29.4081ZM34.3003 34.3781C34.5663 34.3315 34.8323 34.2755 35.0983 34.2101C35.3689 34.1401 35.6373 34.0538 35.9033 33.9511C36.1739 33.8485 36.4353 33.7295 36.6873 33.5941C37.0839 33.3701 37.4526 33.1181 37.7933 32.8381C38.1386 32.5581 38.4466 32.2595 38.7173 31.9421C38.9926 31.6248 39.2236 31.3005 39.4103 30.9691L39.9493 31.9211C39.6226 32.4065 39.2189 32.8638 38.7383 33.2931C38.2623 33.7225 37.7373 34.1028 37.1633 34.4341C36.9253 34.5695 36.6639 34.6955 36.3793 34.8121C36.0993 34.9288 35.8216 35.0291 35.5463 35.1131C35.2756 35.2018 35.0353 35.2648 34.8253 35.3021L34.3003 34.3781ZM34.5243 31.0041C34.6409 31.0695 34.7716 31.1465 34.9163 31.2351C35.0656 31.3191 35.2149 31.4078 35.3643 31.5011C35.5136 31.5945 35.6536 31.6831 35.7843 31.7671C35.9196 31.8511 36.0316 31.9258 36.1203 31.9911L35.6093 32.7751C35.5066 32.7051 35.3899 32.6281 35.2593 32.5441C35.1286 32.4555 34.9886 32.3645 34.8393 32.2711C34.6946 32.1731 34.5499 32.0821 34.4053 31.9981C34.2653 31.9141 34.1346 31.8418 34.0133 31.7811L34.5243 31.0041ZM46.5573 29.9821C46.5573 30.0941 46.5946 30.1898 46.6693 30.2691C46.7486 30.3485 46.8443 30.3881 46.9563 30.3881C47.0683 30.3881 47.1639 30.3485 47.2433 30.2691C47.3226 30.1898 47.3623 30.0941 47.3623 29.9821C47.3623 29.8701 47.3226 29.7745 47.2433 29.6951C47.1639 29.6158 47.0683 29.5761 46.9563 29.5761C46.8443 29.5761 46.7486 29.6158 46.6693 29.6951C46.5946 29.7745 46.5573 29.8701 46.5573 29.9821ZM46.1233 29.9821C46.1233 29.8281 46.1606 29.6881 46.2353 29.5621C46.3099 29.4361 46.4103 29.3358 46.5363 29.2611C46.6623 29.1818 46.8023 29.1421 46.9563 29.1421C47.1103 29.1421 47.2503 29.1818 47.3763 29.2611C47.5023 29.3358 47.6026 29.4361 47.6773 29.5621C47.7566 29.6881 47.7963 29.8281 47.7963 29.9821C47.7963 30.1361 47.7566 30.2761 47.6773 30.4021C47.6026 30.5281 47.5023 30.6308 47.3763 30.7101C47.2503 30.7848 47.1103 30.8221 46.9563 30.8221C46.8023 30.8221 46.6623 30.7848 46.5363 30.7101C46.4103 30.6308 46.3099 30.5281 46.2353 30.4021C46.1606 30.2761 46.1233 30.1361 46.1233 29.9821ZM43.2883 29.5831C43.2696 29.6905 43.2556 29.8141 43.2463 29.9541C43.2369 30.0941 43.2323 30.2131 43.2323 30.3111C43.2323 30.3811 43.2323 30.5048 43.2323 30.6821C43.2323 30.8548 43.2323 31.0601 43.2323 31.2981C43.2323 31.5361 43.2323 31.7858 43.2323 32.0471C43.2323 32.3038 43.2323 32.5535 43.2323 32.7961C43.2323 33.0341 43.2323 33.2465 43.2323 33.4331C43.2323 33.6198 43.2323 33.7575 43.2323 33.8461C43.2323 33.9955 43.2696 34.0981 43.3443 34.1541C43.4189 34.2101 43.5333 34.2545 43.6873 34.2871C43.7946 34.3011 43.9183 34.3128 44.0583 34.3221C44.1983 34.3268 44.3453 34.3291 44.4993 34.3291C44.6813 34.3291 44.8819 34.3245 45.1013 34.3151C45.3253 34.3011 45.5493 34.2848 45.7733 34.2661C46.0019 34.2475 46.2166 34.2218 46.4173 34.1891C46.6179 34.1565 46.7906 34.1215 46.9353 34.0841V35.1061C46.7159 35.1388 46.4616 35.1645 46.1723 35.1831C45.8829 35.2065 45.5866 35.2228 45.2833 35.2321C44.9846 35.2461 44.7046 35.2531 44.4433 35.2531C44.2146 35.2531 43.9976 35.2461 43.7923 35.2321C43.5916 35.2181 43.4166 35.1995 43.2673 35.1761C42.9639 35.1155 42.7283 35.0011 42.5603 34.8331C42.3923 34.6605 42.3083 34.4248 42.3083 34.1261C42.3083 33.9908 42.3083 33.8158 42.3083 33.6011C42.3083 33.3818 42.3083 33.1415 42.3083 32.8801C42.3083 32.6141 42.3083 32.3481 42.3083 32.0821C42.3083 31.8115 42.3083 31.5571 42.3083 31.3191C42.3083 31.0765 42.3083 30.8665 42.3083 30.6891C42.3083 30.5118 42.3083 30.3858 42.3083 30.3111C42.3083 30.2598 42.3059 30.1898 42.3013 30.1011C42.2966 30.0125 42.2896 29.9215 42.2803 29.8281C42.2756 29.7348 42.2663 29.6531 42.2523 29.5831H43.2883ZM42.8263 31.7321C43.0503 31.6855 43.2883 31.6295 43.5403 31.5641C43.7923 31.4941 44.0466 31.4195 44.3033 31.3401C44.5599 31.2608 44.8026 31.1815 45.0313 31.1021C45.2646 31.0181 45.4723 30.9365 45.6543 30.8571C45.7803 30.8105 45.9039 30.7568 46.0253 30.6961C46.1513 30.6355 46.2819 30.5631 46.4173 30.4791L46.7953 31.3681C46.6599 31.4195 46.5176 31.4778 46.3683 31.5431C46.2236 31.6038 46.0929 31.6551 45.9763 31.6971C45.7709 31.7765 45.5353 31.8605 45.2693 31.9491C45.0079 32.0378 44.7349 32.1265 44.4503 32.2151C44.1656 32.2991 43.8833 32.3785 43.6033 32.4531C43.3279 32.5278 43.0713 32.5931 42.8333 32.6491L42.8263 31.7321ZM49.1543 30.4511H51.4363V31.2281H49.1543V30.4511ZM50.0153 29.0021H50.7923V35.5751H50.0153V29.0021ZM50.0153 30.9901L50.4913 31.1441C50.4399 31.4241 50.3769 31.7135 50.3023 32.0121C50.2276 32.3108 50.1413 32.6048 50.0433 32.8941C49.9499 33.1788 49.8473 33.4448 49.7353 33.6921C49.6233 33.9395 49.5043 34.1541 49.3783 34.3361C49.3409 34.2241 49.2826 34.0958 49.2033 33.9511C49.1286 33.8065 49.0586 33.6851 48.9933 33.5871C49.1099 33.4331 49.2196 33.2535 49.3223 33.0481C49.4249 32.8428 49.5206 32.6235 49.6093 32.3901C49.7026 32.1568 49.7819 31.9211 49.8473 31.6831C49.9173 31.4405 49.9733 31.2095 50.0153 30.9901ZM50.7573 31.5151C50.7946 31.5618 50.8529 31.6435 50.9323 31.7601C51.0116 31.8721 51.0956 31.9935 51.1843 32.1241C51.2729 32.2548 51.3546 32.3785 51.4293 32.4951C51.5039 32.6071 51.5553 32.6865 51.5833 32.7331L51.1493 33.3841C51.1119 33.2815 51.0629 33.1625 51.0023 33.0271C50.9416 32.8871 50.8739 32.7448 50.7993 32.6001C50.7293 32.4508 50.6593 32.3131 50.5893 32.1871C50.5239 32.0565 50.4703 31.9515 50.4283 31.8721L50.7573 31.5151ZM52.2133 30.6191H54.7683V31.3051H52.2133V30.6191ZM53.4663 29.7371C53.3403 29.9238 53.1793 30.1151 52.9833 30.3111C52.7919 30.5025 52.5796 30.6845 52.3463 30.8571C52.1176 31.0251 51.8819 31.1698 51.6393 31.2911C51.5973 31.1838 51.5366 31.0625 51.4573 30.9271C51.3779 30.7918 51.3056 30.6798 51.2403 30.5911C51.4923 30.4791 51.7326 30.3391 51.9613 30.1711C52.1946 29.9985 52.4046 29.8118 52.5913 29.6111C52.7826 29.4105 52.9389 29.2121 53.0603 29.0161H53.8233C53.9866 29.2401 54.1709 29.4525 54.3763 29.6531C54.5863 29.8491 54.8079 30.0265 55.0413 30.1851C55.2793 30.3391 55.5196 30.4628 55.7623 30.5561C55.6876 30.6541 55.6106 30.7731 55.5313 30.9131C55.4519 31.0485 55.3843 31.1745 55.3283 31.2911C55.1043 31.1791 54.8733 31.0391 54.6353 30.8711C54.4019 30.6985 54.1826 30.5141 53.9773 30.3181C53.7766 30.1221 53.6063 29.9285 53.4663 29.7371ZM52.3953 32.3971V33.0551H54.5863V32.3971H52.3953ZM51.6673 31.7531H55.3423V33.6991H51.6673V31.7531ZM53.0883 31.0531H53.8443V32.8451C53.8443 33.1018 53.8163 33.3631 53.7603 33.6291C53.7089 33.8905 53.6063 34.1448 53.4523 34.3921C53.2983 34.6395 53.0766 34.8681 52.7873 35.0781C52.4979 35.2881 52.1223 35.4678 51.6603 35.6171C51.6369 35.5565 51.5973 35.4865 51.5413 35.4071C51.4899 35.3278 51.4339 35.2485 51.3733 35.1691C51.3126 35.0945 51.2589 35.0361 51.2123 34.9941C51.6369 34.8588 51.9753 34.7095 52.2273 34.5461C52.4793 34.3828 52.6659 34.2078 52.7873 34.0211C52.9086 33.8298 52.9879 33.6338 53.0253 33.4331C53.0673 33.2325 53.0883 33.0271 53.0883 32.8171V31.0531ZM53.9003 33.2791C54.0496 33.6291 54.2129 33.9091 54.3903 34.1191C54.5676 34.3291 54.7659 34.4948 54.9853 34.6161C55.2093 34.7328 55.4543 34.8308 55.7203 34.9101C55.6223 34.9941 55.5266 35.0991 55.4333 35.2251C55.3446 35.3558 55.2769 35.4841 55.2303 35.6101C54.9316 35.4935 54.6563 35.3511 54.4043 35.1831C54.1569 35.0151 53.9329 34.7935 53.7323 34.5181C53.5316 34.2381 53.3519 33.8765 53.1933 33.4331L53.9003 33.2791ZM59.5983 33.6711H60.4383V35.5821H59.5983V33.6711ZM59.5913 29.0021H60.4243V31.0251H59.5913V29.0021ZM59.4093 31.1511L60.1723 31.5081C59.9623 31.6948 59.7429 31.8768 59.5143 32.0541C59.2856 32.2315 59.0756 32.3831 58.8843 32.5091L58.2893 32.1871C58.4153 32.0985 58.5459 31.9935 58.6813 31.8721C58.8213 31.7508 58.9543 31.6271 59.0803 31.5011C59.2109 31.3751 59.3206 31.2585 59.4093 31.1511ZM60.9213 31.5921L61.6703 31.9981C61.3856 32.2175 61.0753 32.4368 60.7393 32.6561C60.4033 32.8755 60.0673 33.0855 59.7313 33.2861C59.3953 33.4821 59.0803 33.6548 58.7863 33.8041L58.2333 33.4191C58.4526 33.3071 58.6836 33.1788 58.9263 33.0341C59.1736 32.8848 59.4163 32.7285 59.6543 32.5651C59.8969 32.4018 60.1256 32.2385 60.3403 32.0751C60.5596 31.9071 60.7533 31.7461 60.9213 31.5921ZM57.6803 32.3271L58.2263 31.8511C58.3943 31.9351 58.5716 32.0308 58.7583 32.1381C58.9496 32.2455 59.1316 32.3575 59.3043 32.4741C59.4816 32.5861 59.6263 32.6911 59.7383 32.7891L59.1573 33.3141C59.0546 33.2161 58.9193 33.1088 58.7513 32.9921C58.5879 32.8708 58.4106 32.7518 58.2193 32.6351C58.0326 32.5185 57.8529 32.4158 57.6803 32.3271ZM60.9563 32.8731L61.5093 32.4531C61.6959 32.5651 61.8943 32.6958 62.1043 32.8451C62.3143 32.9898 62.5149 33.1368 62.7063 33.2861C62.9023 33.4355 63.0586 33.5708 63.1753 33.6921L62.5873 34.1751C62.4753 34.0538 62.3283 33.9161 62.1463 33.7621C61.9643 33.6081 61.7683 33.4541 61.5583 33.3001C61.3529 33.1415 61.1523 32.9991 60.9563 32.8731ZM60.8373 34.3851L61.4813 33.9721C61.6633 34.0655 61.8616 34.1751 62.0763 34.3011C62.2909 34.4225 62.4986 34.5485 62.6993 34.6791C62.8999 34.8098 63.0656 34.9288 63.1963 35.0361L62.5033 35.5121C62.3913 35.4048 62.2396 35.2835 62.0483 35.1481C61.8616 35.0175 61.6609 34.8845 61.4463 34.7491C61.2316 34.6138 61.0286 34.4925 60.8373 34.3851ZM56.9663 33.2581C57.2976 33.2581 57.6709 33.2581 58.0863 33.2581C58.5063 33.2535 58.9543 33.2511 59.4303 33.2511C59.9063 33.2465 60.3963 33.2395 60.9003 33.2301C61.4089 33.2208 61.9129 33.2138 62.4123 33.2091L62.3703 33.8461C61.7309 33.8695 61.0846 33.8928 60.4313 33.9161C59.7826 33.9348 59.1643 33.9535 58.5763 33.9721C57.9929 33.9861 57.4703 33.9978 57.0083 34.0071L56.9663 33.2581ZM58.4013 33.9931L59.1923 34.2941C59.0429 34.4528 58.8679 34.6091 58.6673 34.7631C58.4713 34.9171 58.2659 35.0595 58.0513 35.1901C57.8366 35.3208 57.6313 35.4351 57.4353 35.5331C57.3886 35.4771 57.3256 35.4118 57.2463 35.3371C57.1669 35.2625 57.0853 35.1878 57.0013 35.1131C56.9219 35.0431 56.8519 34.9848 56.7913 34.9381C57.0899 34.8308 57.3863 34.6931 57.6803 34.5251C57.9743 34.3525 58.2146 34.1751 58.4013 33.9931ZM57.0503 29.5481H63.0143V30.2691H57.0503V29.5481ZM56.9873 30.7031H63.1053V32.1591H62.2723V31.4031H57.7853V32.1591H56.9873V30.7031ZM66.9763 30.6541C67.1769 30.6728 67.3776 30.6891 67.5783 30.7031C67.7836 30.7125 67.9913 30.7171 68.2013 30.7171C68.6306 30.7171 69.0576 30.6985 69.4823 30.6611C69.9069 30.6238 70.2989 30.5655 70.6583 30.4861V31.3611C70.2943 31.4125 69.8999 31.4545 69.4753 31.4871C69.0506 31.5151 68.6259 31.5291 68.2013 31.5291C67.9959 31.5291 67.7906 31.5268 67.5853 31.5221C67.3846 31.5128 67.1816 31.5011 66.9763 31.4871V30.6541ZM69.6363 29.4711C69.6269 29.5365 69.6176 29.6088 69.6083 29.6881C69.6036 29.7675 69.5989 29.8468 69.5943 29.9261C69.5896 30.0008 69.5849 30.1011 69.5803 30.2271C69.5756 30.3531 69.5733 30.4955 69.5733 30.6541C69.5733 30.8081 69.5733 30.9715 69.5733 31.1441C69.5733 31.4615 69.5779 31.7601 69.5873 32.0401C69.5966 32.3155 69.6083 32.5721 69.6223 32.8101C69.6363 33.0435 69.6479 33.2581 69.6573 33.4541C69.6713 33.6501 69.6783 33.8321 69.6783 34.0001C69.6783 34.1821 69.6526 34.3501 69.6013 34.5041C69.5546 34.6581 69.4776 34.7935 69.3703 34.9101C69.2629 35.0268 69.1206 35.1155 68.9433 35.1761C68.7706 35.2415 68.5583 35.2741 68.3063 35.2741C67.8209 35.2741 67.4383 35.1761 67.1583 34.9801C66.8783 34.7841 66.7383 34.5018 66.7383 34.1331C66.7383 33.8951 66.8013 33.6875 66.9273 33.5101C67.0533 33.3281 67.2329 33.1881 67.4663 33.0901C67.6996 32.9875 67.9749 32.9361 68.2923 32.9361C68.6236 32.9361 68.9246 32.9711 69.1953 33.0411C69.4659 33.1111 69.7133 33.2045 69.9373 33.3211C70.1613 33.4378 70.3596 33.5661 70.5323 33.7061C70.7096 33.8415 70.8683 33.9721 71.0083 34.0981L70.5253 34.8331C70.2593 34.5811 70.0003 34.3641 69.7483 34.1821C69.4963 34.0001 69.2443 33.8601 68.9923 33.7621C68.7449 33.6641 68.4883 33.6151 68.2223 33.6151C68.0263 33.6151 67.8653 33.6525 67.7393 33.7271C67.6179 33.8018 67.5573 33.9068 67.5573 34.0421C67.5573 34.1821 67.6203 34.2848 67.7463 34.3501C67.8723 34.4155 68.0263 34.4481 68.2083 34.4481C68.3529 34.4481 68.4673 34.4248 68.5513 34.3781C68.6353 34.3268 68.6936 34.2545 68.7263 34.1611C68.7636 34.0631 68.7823 33.9465 68.7823 33.8111C68.7823 33.6898 68.7776 33.5311 68.7683 33.3351C68.7589 33.1391 68.7473 32.9198 68.7333 32.6771C68.7239 32.4345 68.7146 32.1825 68.7053 31.9211C68.6959 31.6551 68.6913 31.3961 68.6913 31.1441C68.6913 30.8781 68.6889 30.6378 68.6843 30.4231C68.6843 30.2038 68.6843 30.0405 68.6843 29.9331C68.6843 29.8818 68.6796 29.8095 68.6703 29.7161C68.6609 29.6228 68.6493 29.5411 68.6353 29.4711H69.6363ZM66.2203 29.5481C66.2063 29.5948 66.1853 29.6601 66.1573 29.7441C66.1339 29.8281 66.1129 29.9098 66.0943 29.9891C66.0803 30.0685 66.0686 30.1291 66.0593 30.1711C66.0359 30.2691 66.0103 30.4021 65.9823 30.5701C65.9543 30.7335 65.9239 30.9201 65.8913 31.1301C65.8633 31.3355 65.8353 31.5478 65.8073 31.7671C65.7793 31.9818 65.7583 32.1871 65.7443 32.3831C65.7303 32.5745 65.7233 32.7401 65.7233 32.8801C65.7233 32.9501 65.7233 33.0271 65.7233 33.1111C65.7279 33.1905 65.7373 33.2651 65.7513 33.3351C65.7839 33.2511 65.8166 33.1695 65.8493 33.0901C65.8866 33.0108 65.9239 32.9315 65.9613 32.8521C65.9986 32.7728 66.0336 32.6935 66.0663 32.6141L66.4933 32.9641C66.4279 33.1555 66.3603 33.3561 66.2903 33.5661C66.2249 33.7761 66.1643 33.9745 66.1083 34.1611C66.0569 34.3478 66.0173 34.5041 65.9893 34.6301C65.9799 34.6768 65.9706 34.7328 65.9613 34.7981C65.9566 34.8635 65.9543 34.9171 65.9543 34.9591C65.9543 34.9965 65.9543 35.0408 65.9543 35.0921C65.9589 35.1481 65.9636 35.1995 65.9683 35.2461L65.1773 35.3091C65.1026 35.0618 65.0373 34.7468 64.9813 34.3641C64.9253 33.9768 64.8973 33.5451 64.8973 33.0691C64.8973 32.8078 64.9089 32.5348 64.9323 32.2501C64.9556 31.9608 64.9813 31.6831 65.0093 31.4171C65.0419 31.1511 65.0746 30.9085 65.1073 30.6891C65.1399 30.4651 65.1656 30.2855 65.1843 30.1501C65.1983 30.0521 65.2123 29.9425 65.2263 29.8211C65.2403 29.6951 65.2496 29.5761 65.2543 29.4641L66.2203 29.5481ZM73.4653 29.8631C73.7219 29.8911 74.0113 29.9121 74.3333 29.9261C74.6553 29.9401 75.0006 29.9471 75.3693 29.9471C75.5979 29.9471 75.8336 29.9425 76.0763 29.9331C76.3236 29.9238 76.5616 29.9121 76.7903 29.8981C77.0189 29.8841 77.2219 29.8678 77.3993 29.8491V30.7801C77.2359 30.7941 77.0376 30.8081 76.8043 30.8221C76.5756 30.8361 76.3353 30.8478 76.0833 30.8571C75.8359 30.8618 75.6003 30.8641 75.3763 30.8641C75.0123 30.8641 74.6739 30.8571 74.3613 30.8431C74.0486 30.8291 73.7499 30.8105 73.4653 30.7871V29.8631ZM74.0533 32.8311C74.0206 32.9525 73.9926 33.0715 73.9693 33.1881C73.9459 33.3048 73.9343 33.4215 73.9343 33.5381C73.9343 33.7621 74.0463 33.9465 74.2703 34.0911C74.4989 34.2358 74.8653 34.3081 75.3693 34.3081C75.6866 34.3081 75.9923 34.2965 76.2863 34.2731C76.5803 34.2498 76.8579 34.2171 77.1193 34.1751C77.3853 34.1331 77.6209 34.0841 77.8263 34.0281L77.8333 35.0151C77.6279 35.0618 77.3993 35.1015 77.1473 35.1341C76.8953 35.1715 76.6223 35.1995 76.3283 35.2181C76.0389 35.2415 75.7309 35.2531 75.4043 35.2531C74.8723 35.2531 74.4266 35.1948 74.0673 35.0781C73.7079 34.9615 73.4396 34.7935 73.2623 34.5741C73.0849 34.3501 72.9963 34.0771 72.9963 33.7551C72.9963 33.5498 73.0126 33.3631 73.0453 33.1951C73.0779 33.0271 73.1083 32.8778 73.1363 32.7471L74.0533 32.8311ZM82.8103 29.3731C82.7729 29.4945 82.7403 29.6158 82.7123 29.7371C82.6889 29.8538 82.6656 29.9705 82.6423 30.0871C82.6189 30.1991 82.5909 30.3275 82.5583 30.4721C82.5303 30.6168 82.4976 30.7708 82.4603 30.9341C82.4276 31.0928 82.3903 31.2538 82.3483 31.4171C82.3109 31.5805 82.2713 31.7415 82.2293 31.9001C82.1873 32.0541 82.1476 32.1965 82.1103 32.3271C82.3949 32.1685 82.6773 32.0565 82.9573 31.9911C83.2373 31.9211 83.5336 31.8861 83.8463 31.8861C84.2243 31.8861 84.5533 31.9491 84.8333 32.0751C85.1179 32.2011 85.3373 32.3761 85.4913 32.6001C85.6499 32.8241 85.7293 33.0855 85.7293 33.3841C85.7293 33.7761 85.6383 34.1075 85.4563 34.3781C85.2789 34.6488 85.0223 34.8611 84.6863 35.0151C84.3549 35.1691 83.9559 35.2671 83.4893 35.3091C83.0273 35.3511 82.5139 35.3418 81.9493 35.2811L81.7043 34.3781C82.0869 34.4435 82.4603 34.4761 82.8243 34.4761C83.1929 34.4761 83.5243 34.4411 83.8183 34.3711C84.1123 34.3011 84.3456 34.1891 84.5183 34.0351C84.6956 33.8765 84.7843 33.6688 84.7843 33.4121C84.7843 33.2021 84.6956 33.0225 84.5183 32.8731C84.3409 32.7191 84.0819 32.6421 83.7413 32.6421C83.3353 32.6421 82.9619 32.7121 82.6213 32.8521C82.2853 32.9921 82.0123 33.1951 81.8023 33.4611C81.7696 33.5125 81.7369 33.5615 81.7043 33.6081C81.6763 33.6548 81.6436 33.7085 81.6063 33.7691L80.7803 33.4751C80.9109 33.2231 81.0323 32.9361 81.1443 32.6141C81.2563 32.2921 81.3566 31.9678 81.4453 31.6411C81.5339 31.3145 81.6063 31.0111 81.6623 30.7311C81.7183 30.4465 81.7579 30.2155 81.7813 30.0381C81.8046 29.8888 81.8186 29.7628 81.8233 29.6601C81.8279 29.5528 81.8256 29.4431 81.8163 29.3311L82.8103 29.3731ZM80.3673 30.1921C80.5913 30.2295 80.8339 30.2621 81.0953 30.2901C81.3566 30.3135 81.5969 30.3251 81.8163 30.3251C82.0403 30.3251 82.2853 30.3181 82.5513 30.3041C82.8219 30.2901 83.1066 30.2691 83.4053 30.2411C83.7039 30.2131 84.0026 30.1781 84.3013 30.1361C84.6046 30.0895 84.9009 30.0358 85.1903 29.9751L85.2043 30.8081C84.9803 30.8455 84.7259 30.8828 84.4413 30.9201C84.1613 30.9575 83.8673 30.9925 83.5593 31.0251C83.2513 31.0531 82.9479 31.0765 82.6493 31.0951C82.3506 31.1138 82.0753 31.1231 81.8233 31.1231C81.5526 31.1231 81.2936 31.1185 81.0463 31.1091C80.8036 31.0951 80.5773 31.0788 80.3673 31.0601V30.1921ZM89.6773 29.3171C89.8453 29.3685 90.0553 29.4221 90.3073 29.4781C90.5593 29.5341 90.8229 29.5901 91.0983 29.6461C91.3736 29.6975 91.6326 29.7418 91.8753 29.7791C92.1226 29.8165 92.3233 29.8445 92.4773 29.8631L92.2673 30.7171C92.1273 30.6985 91.9569 30.6728 91.7563 30.6401C91.5603 30.6028 91.3503 30.5631 91.1263 30.5211C90.9069 30.4791 90.6899 30.4371 90.4753 30.3951C90.2606 30.3485 90.0646 30.3041 89.8873 30.2621C89.7099 30.2201 89.5653 30.1851 89.4533 30.1571L89.6773 29.3171ZM89.7193 30.7241C89.6959 30.8175 89.6703 30.9388 89.6423 31.0881C89.6189 31.2328 89.5956 31.3845 89.5723 31.5431C89.5489 31.7018 89.5256 31.8535 89.5023 31.9981C89.4836 32.1428 89.4673 32.2641 89.4533 32.3621C89.7706 32.1335 90.1019 31.9655 90.4473 31.8581C90.7973 31.7508 91.1543 31.6971 91.5183 31.6971C91.9289 31.6971 92.2789 31.7718 92.5683 31.9211C92.8576 32.0705 93.0769 32.2665 93.2263 32.5091C93.3803 32.7518 93.4573 33.0155 93.4573 33.3001C93.4573 33.6175 93.3896 33.9115 93.2543 34.1821C93.1189 34.4528 92.8973 34.6838 92.5893 34.8751C92.2813 35.0665 91.8776 35.2018 91.3783 35.2811C90.8789 35.3605 90.2653 35.3698 89.5373 35.3091L89.2713 34.3921C89.9713 34.4855 90.5593 34.4995 91.0353 34.4341C91.5113 34.3641 91.8706 34.2288 92.1133 34.0281C92.3606 33.8228 92.4843 33.5731 92.4843 33.2791C92.4843 33.1251 92.4399 32.9898 92.3513 32.8731C92.2626 32.7518 92.1389 32.6585 91.9803 32.5931C91.8216 32.5231 91.6419 32.4881 91.4413 32.4881C91.0493 32.4881 90.6806 32.5605 90.3353 32.7051C89.9946 32.8451 89.7146 33.0481 89.4953 33.3141C89.4346 33.3888 89.3833 33.4588 89.3413 33.5241C89.3039 33.5848 89.2689 33.6501 89.2363 33.7201L88.4313 33.5171C88.4593 33.3818 88.4873 33.2231 88.5153 33.0411C88.5433 32.8545 88.5713 32.6561 88.5993 32.4461C88.6273 32.2315 88.6529 32.0168 88.6763 31.8021C88.6996 31.5875 88.7206 31.3751 88.7393 31.1651C88.7579 30.9551 88.7719 30.7638 88.7813 30.5911L89.7193 30.7241Z" fill="#473D34"/>
<path d="M99.7568 35.5465C99.5835 35.5465 99.4351 35.4848 99.3116 35.3614C99.1882 35.2379 99.1265 35.0895 99.1265 34.9162V30.5039C99.1265 30.3305 99.1882 30.1821 99.3116 30.0587C99.4351 29.9353 99.5835 29.8735 99.7568 29.8735H101.963V30.5039H99.7568V34.9162H104.169V32.71H104.799V34.9162C104.799 35.0895 104.738 35.2379 104.614 35.3614C104.491 35.4848 104.342 35.5465 104.169 35.5465H99.7568ZM101.238 33.8761L100.797 33.4349L103.728 30.5039H102.593V29.8735H104.799V32.0797H104.169V30.9451L101.238 33.8761Z" fill="#473D34"/>
<rect x="17" y="3" width="101" height="23" fill="#473D34"/>
</svg>
