<svg width="62" height="50" viewBox="0 0 62 50" fill="none" xmlns="http://www.w3.org/2000/svg">
<path d="M18.4241 0.818893C31.6188 -2.65272 45.1297 5.22971 48.6015 18.4244C50.1101 24.1581 49.4725 29.9505 47.189 34.9539L59.5118 42.1428C61.4198 43.2559 62.0641 45.7047 60.9511 47.6128C59.8379 49.521 57.3883 50.1656 55.4801 49.0524L42.729 41.6137C39.6595 44.892 35.6606 47.3744 30.997 48.6016C17.8023 52.0735 4.29091 44.1919 0.818802 30.9973C-2.65311 17.8025 5.22922 4.29081 18.4241 0.818893ZM20.7632 9.70868C12.4781 11.8887 7.52855 20.373 9.70859 28.6582C11.8888 36.943 20.3728 41.8918 28.6578 39.7118C36.9425 37.5316 41.8914 29.0484 39.7117 20.7635C37.5317 12.4786 29.0482 7.52895 20.7632 9.70868Z" fill="white"/>
</svg>
