<svg width="19" height="17" viewBox="0 0 19 17" fill="none" xmlns="http://www.w3.org/2000/svg">
<path d="M4.75004 0.045463C5.0453 -0.0139029 5.34921 -0.0149122 5.64287 0.0411654C6.32028 0.0874282 6.9702 0.251486 7.59223 0.535386C8.33526 0.87455 8.97572 1.35232 9.51325 1.96893C10.0508 1.35228 10.6912 0.874553 11.4343 0.535386C12.1774 0.196217 12.96 0.0264309 13.7822 0.0264309C15.2684 0.0264465 16.5098 0.512066 17.5059 1.48331C18.5019 2.45454 19 3.66505 19 5.11414C19 5.82323 18.8773 6.51714 18.6323 7.1954C18.3872 7.87363 17.9561 8.61722 17.3396 9.42645C16.723 10.2358 15.8929 11.1496 14.8494 12.1671C13.8059 13.1846 12.4859 14.395 10.889 15.7979L9.51325 17L8.13749 15.7979C6.54062 14.395 5.22059 13.1846 4.17707 12.1671C3.13354 11.1496 2.30348 10.2358 1.68685 9.42645C1.07034 8.6172 0.639281 7.87364 0.394207 7.1954C0.149166 6.51714 0.0265282 5.82323 0.026499 5.11414C0.026499 5.06172 0.0283438 5.00938 0.0296472 4.95759C-0.0441537 4.5176 0.0203573 4.06271 0.217279 3.65727C0.445648 2.83364 0.87921 2.10876 1.52063 1.48331C2.40423 0.621743 3.48076 0.142767 4.75004 0.045463Z" fill="#F7AE41"/>
</svg>
