<svg width="30" height="28" viewBox="0 0 30 28" fill="none" xmlns="http://www.w3.org/2000/svg">
<path d="M7.36727 0.0723158C7.82521 -0.0221147 8.29658 -0.0237201 8.75204 0.0654799C9.8027 0.139068 10.8107 0.400027 11.7755 0.851613C12.9279 1.3911 13.9213 2.15107 14.755 3.13189C15.5887 2.151 16.5819 1.39111 17.7345 0.851613C18.887 0.312113 20.1009 0.0420424 21.3761 0.0420424C23.6811 0.0420671 25.6065 0.814518 27.1515 2.35943C28.6962 3.90431 29.4688 5.82981 29.4688 8.13482C29.4688 9.26272 29.2786 10.3665 28.8985 11.4454C28.5184 12.5242 27.8498 13.707 26.8936 14.9942C25.9373 16.2816 24.6498 17.7351 23.0313 19.3536C21.4129 20.972 19.3655 22.8974 16.8888 25.129L14.755 27.0411L12.6212 25.129C10.1444 22.8974 8.09708 20.972 6.4786 19.3536C4.8601 17.7351 3.57268 16.2816 2.6163 14.9942C1.66009 13.707 0.991519 12.5242 0.611412 11.4454C0.231355 10.3665 0.041145 9.26272 0.0410997 8.13482C0.0410997 8.05143 0.0439609 7.96818 0.0459825 7.88579C-0.0684819 7.18593 0.031574 6.46236 0.336998 5.81743C0.691196 4.50733 1.36365 3.35429 2.35848 2.35943C3.72893 0.988976 5.39863 0.227092 7.36727 0.0723158Z" fill="#F7AE41"/>
</svg>
